<svg width="139" height="99" viewBox="0 0 139 99" fill="none" xmlns="http://www.w3.org/2000/svg">
<g clip-path="url(#clip0_5_1555)">
<mask id="mask0_5_1555" style="mask-type:luminance" maskUnits="userSpaceOnUse" x="1" y="0" width="139" height="97">
<path d="M106.439 6.91499C106.273 6.61868 106.273 7.11254 106.231 7.11254C106.522 7.40886 106.48 6.81622 106.439 6.91499Z" fill="white"/>
<path d="M131.295 10.2725H131.212L131.668 10.6676L131.295 10.2725Z" fill="white"/>
<path d="M133.369 14.9153C133.369 14.4215 133.203 14.0264 132.954 13.6313C132.705 13.2362 132.497 12.8411 132.29 12.2485V11.9521H131.958C132.207 12.446 132.497 12.9399 132.746 13.4337C132.995 13.8288 133.203 14.3227 133.369 14.9153Z" fill="white"/>
<path d="M133.868 19.9521C133.909 19.6558 134.158 20.3472 133.66 19.2607C133.66 19.3595 133.66 19.3595 133.66 19.4583C133.785 19.5571 133.826 19.7546 133.868 19.9521Z" fill="white"/>
<path d="M133.701 17.9775C133.494 17.4837 133.784 18.4714 133.701 17.9775V17.9775Z" fill="white"/>
<path d="M134.614 22.0262L134.448 21.7299C134.365 21.5324 134.282 21.4336 134.282 21.4336C134.282 21.6311 134.448 22.3225 134.365 22.2238C134.614 22.8164 134.614 22.6189 134.614 22.0262Z" fill="white"/>
<path d="M134.987 22.5209L134.821 22.2246C134.821 22.2246 134.863 22.4222 134.987 22.5209Z" fill="white"/>
<path d="M134.489 21.4336L134.821 22.125C134.821 21.9275 134.904 21.8287 134.697 21.8287C134.78 21.7299 134.655 21.6311 134.489 21.4336Z" fill="white"/>
<path d="M134.407 20.7423C134.324 20.2484 134.158 19.6558 134.49 20.2484C133.992 18.8656 133.909 19.4583 134.407 20.7423Z" fill="white"/>
<path d="M133.701 14.6186L133.535 13.9272L133.286 13.6309C133.411 13.8284 133.618 14.8161 133.701 14.6186Z" fill="white"/>
<path d="M135.734 27.3599C135.817 27.3599 135.817 26.8661 135.859 26.7673L135.651 26.2734C135.734 26.5698 135.817 27.2612 135.734 27.3599Z" fill="white"/>
<path d="M135.9 26.7679L136.191 27.5581C136.025 26.7679 135.942 26.6692 135.9 26.7679Z" fill="white"/>
<path d="M135.278 22.1256L134.697 21.0391L135.361 22.4219L135.278 22.1256Z" fill="white"/>
<path d="M136.482 31.1138L136.274 30.7188L136.648 31.4102L136.482 31.1138Z" fill="white"/>
<path d="M136.896 33.6821C136.73 33.3858 136.772 34.3735 136.647 34.0772C136.772 34.6698 136.938 35.1637 137.104 35.5588C136.979 34.9662 136.896 34.3735 136.896 33.6821Z" fill="white"/>
<path d="M136.481 29.3359C136.44 29.6323 136.44 29.9286 136.481 30.2249L136.564 29.731L136.481 29.3359Z" fill="white"/>
<path d="M136.564 29.7305C136.606 30.0268 136.647 30.2243 136.689 30.5206C136.689 30.4219 136.647 30.1256 136.564 29.7305Z" fill="white"/>
<path d="M135.776 24.8906C135.984 25.2857 136.357 26.2734 136.233 24.9894C136.025 24.7919 136.108 25.4833 135.776 24.8906Z" fill="white"/>
<path d="M136.564 28.4467L136.481 27.9528C136.44 27.6565 136.398 27.459 136.398 27.459C136.357 27.5578 136.357 27.7553 136.232 27.5578C136.232 27.5578 136.315 27.7553 136.398 28.0516L136.564 28.4467Z" fill="white"/>
<path d="M136.73 28.941L136.564 28.5459L136.647 28.941H136.73Z" fill="white"/>
<path d="M137.269 34.4717C137.394 34.8668 137.518 35.3607 137.56 35.8545C137.518 35.2619 137.477 34.6693 137.352 34.0766C137.269 33.9778 137.145 33.8791 137.269 34.4717Z" fill="white"/>
<path d="M138.1 41.88L138.141 41.7812H138.1V41.88Z" fill="white"/>
<path d="M137.353 33.7806C137.311 33.3855 137.27 33.0891 137.145 32.8916C137.228 33.1879 137.27 33.583 137.353 33.8793C137.353 33.9781 137.394 33.9781 137.353 33.7806Z" fill="white"/>
<path d="M137.601 38.0275C137.601 37.7312 137.601 37.4348 137.601 37.2373C137.56 37.4348 137.56 37.9287 137.601 38.0275Z" fill="white"/>
<path d="M136.979 32.3975C136.938 32.4962 136.938 32.4962 136.979 32.3975V32.3975Z" fill="white"/>
<path d="M136.979 32.3977C137.021 32.5953 137.104 32.6941 137.187 32.8916C137.145 32.6941 137.062 32.3977 137.021 32.2002C136.979 32.299 136.979 32.299 136.979 32.3977Z" fill="white"/>
<path d="M139.303 43.3616C139.22 43.3616 139.137 43.0653 139.054 42.5714C138.971 42.0776 138.971 41.4849 139.013 40.9911C138.805 40.0033 138.349 40.8923 138.1 41.88C138.183 41.88 138.224 41.88 138.39 42.8677C138.473 42.4727 138.432 40.3984 138.639 41.2874C138.847 42.6702 138.681 42.4726 138.598 43.1641C138.764 42.4726 138.971 44.942 139.262 44.5469L139.096 43.2628C139.179 43.2628 139.262 43.6579 139.303 43.3616Z" fill="white"/>
<path d="M137.975 39.7066L137.934 39.3115C137.934 39.8054 137.934 40.398 137.851 40.8919C137.975 41.5833 138.058 41.6821 138.1 41.6821L138.017 40.5956C138.017 40.2005 137.975 39.9042 137.934 39.5091L137.975 39.7066Z" fill="white"/>
<path d="M137.727 37.1392C137.934 37.3368 138.1 38.3245 138.224 37.6331C138.058 36.349 137.976 36.8429 137.81 36.1515C138.1 38.127 137.644 35.5589 137.727 37.1392C137.685 36.7441 137.602 36.4478 137.561 36.0527C137.602 36.4478 137.602 36.7441 137.602 37.1392V37.0405C137.602 36.9417 137.602 36.9417 137.602 37.0405C137.644 37.0405 137.685 37.1392 137.727 37.1392C137.768 37.7319 137.685 37.238 137.644 37.1392C137.644 37.1392 137.644 37.1392 137.602 37.1392C137.644 37.4355 137.727 37.7319 137.768 38.127L137.934 39.1147C137.851 38.4233 137.81 37.7319 137.727 37.1392Z" fill="white"/>
<path d="M136.772 25.582C136.772 25.582 136.772 25.6808 136.73 25.6808C136.813 25.7796 136.855 25.7796 136.772 25.582Z" fill="white"/>
<path d="M136.897 26.5704C136.772 26.4717 136.689 26.1753 136.648 25.9778C136.606 25.4839 136.731 25.879 136.772 25.7803C136.648 25.5827 136.44 24.9901 136.565 25.879L136.606 25.9778C136.731 26.768 136.772 28.052 136.689 27.9532C136.814 27.4594 136.897 27.0643 136.897 26.5704Z" fill="white"/>
<path d="M137.478 31.9043C137.478 31.9043 137.561 32.2994 137.644 32.6945C137.727 33.0896 137.81 33.4847 137.81 33.4847V32.4969L137.727 32.5957C137.644 31.608 137.561 32.0031 137.478 31.9043Z" fill="white"/>
<path d="M138.017 42.1761L137.81 41.9785L137.976 42.3736C138.059 42.5712 138.142 42.8675 138.142 42.8675C138.142 42.7687 138.1 42.5711 138.1 42.4724L138.017 42.1761Z" fill="white"/>
<path d="M138.142 44.5469H137.976L138.1 45.1395L138.142 44.5469Z" fill="white"/>
<path d="M3.94528 69.734L3.7793 69.3389C3.82079 69.5364 3.90378 69.6352 3.94528 69.734Z" fill="white"/>
<path d="M4.98308 73.3885H5.06607C4.98308 73.2898 4.94158 73.2898 4.98308 73.3885Z" fill="white"/>
<path d="M98.2225 89.5875C97.8906 89.3899 97.4756 89.0936 97.5586 89.4887L97.6831 89.8838C97.8491 89.6862 98.0565 89.5875 98.2225 89.5875Z" fill="white"/>
<path d="M49.0928 90.6738L49.1343 90.8714L49.3832 90.6738H49.0928Z" fill="white"/>
<path d="M46.9347 92.1551L46.5613 91.5625C46.6858 91.76 46.8102 91.9576 46.9347 92.1551Z" fill="white"/>
<path d="M1.49747 46.3242L1.33148 45.6328C1.28999 46.6205 1.41447 46.2254 1.49747 46.3242Z" fill="white"/>
<path d="M136.398 68.6475C136.232 69.0426 136.108 69.4376 135.983 69.9315C136.232 69.3389 136.481 69.0426 136.398 68.6475Z" fill="white"/>
<path d="M5.85494 68.4502C5.77195 68.2526 5.68896 68.1538 5.64746 68.2526C5.77195 68.4502 5.85494 68.5489 5.85494 68.4502Z" fill="white"/>
<path d="M135.569 71.6105C135.61 71.5117 135.652 71.4129 135.693 71.4129C135.776 70.9191 135.859 70.524 135.984 70.1289C135.776 70.4252 135.652 71.0179 135.569 71.6105Z" fill="white"/>
<path d="M79.0107 0.592773C79.0522 0.592773 79.0522 0.592773 79.0937 0.691546C79.0937 0.592773 79.0522 0.592773 79.0107 0.592773Z" fill="white"/>
<path d="M106.895 7.11244C106.812 7.11244 106.646 7.01367 106.521 7.01367C106.646 7.11244 106.77 7.11244 106.895 7.11244Z" fill="white"/>
<path d="M138.016 54.2265C137.975 54.1278 138.016 53.7327 138.016 54.2265V54.2265Z" fill="white"/>
<path d="M138.017 53.5352L138.058 53.1401C138.058 53.0413 138.017 53.1401 138.017 53.5352Z" fill="white"/>
<path d="M137.976 54.9181C137.976 54.6218 138.017 54.4242 138.017 54.1279C138.017 54.2267 137.976 54.2267 137.976 54.2267C137.976 54.4242 137.976 54.6218 137.976 54.9181Z" fill="white"/>
<path d="M9.92114 12.5443H9.96264C10.0871 12.0505 10.0041 12.1493 9.92114 12.5443Z" fill="white"/>
<path d="M81.542 96.304C81.7495 95.9089 82.0399 95.7114 82.3304 95.9089L82.0399 94.7236L81.542 96.304Z" fill="white"/>
<path d="M3.73827 60.1528C3.73827 60.6467 3.77977 61.1406 3.82126 61.7332C3.32332 61.2393 2.86687 60.6467 2.45192 59.9553C2.24445 59.659 2.11996 59.659 2.03697 60.4492C2.86687 60.3504 3.44781 61.7332 4.07024 63.116C4.73416 64.4988 5.52257 65.7829 6.31098 65.5853C6.35247 65.8816 6.43546 66.2767 6.51845 66.573C6.39397 66.1779 6.31098 66.1779 6.145 65.8816C6.31098 66.8693 6.76742 67.0669 7.34836 67.2644C8.01228 67.462 8.63471 67.9558 9.21564 68.746C9.63059 69.5362 9.79657 70.1288 9.25714 69.7337C9.25714 69.7337 9.63059 70.1288 10.0455 70.4252L10.8754 71.1166C11.2074 71.6104 10.8754 71.6104 10.5435 71.1166L11.5809 72.2031C12.1203 72.7957 12.7012 73.2896 12.7012 73.2896H12.6597C13.1577 73.4871 14.1536 73.981 14.6515 74.1785C15.025 74.8699 14.2366 73.981 14.2366 74.2773L15.7719 75.1662C15.9794 75.8576 14.61 75.1662 13.7801 74.3761C13.7386 75.3638 14.0706 75.5613 14.6515 75.8576C15.4814 76.2527 16.3113 76.9441 17.0582 77.9319L15.6474 77.0429C15.8134 78.2282 17.0167 78.9196 18.1371 80.4012C17.9296 79.9073 16.1868 77.1417 17.9711 78.1294C18.5521 78.8208 19.216 79.2159 19.8799 79.4134C19.5065 79.8085 20.3779 80.3024 21.4567 80.9938L20.8758 81.4877C22.1621 82.0803 22.3281 81.784 23.1995 81.9815C24.4444 82.8705 24.3614 83.3643 24.3614 83.957C26.3947 85.3398 23.49 82.3766 26.0627 83.7594C26.8511 84.3521 27.681 84.7471 28.4694 85.1422C29.3408 85.5373 30.2952 85.7349 31.4986 86.13C32.6604 86.9201 31.0421 86.4263 31.3741 86.7226L32.8264 86.8214C33.1169 86.9201 32.9094 87.0189 32.8264 87.1177C33.9053 87.414 33.2829 86.525 34.9012 87.1177C35.6896 86.6238 37.5154 89.3895 39.8806 89.2907C40.2541 89.6858 39.4656 89.587 39.4656 89.8833C42.4118 90.2784 41.9554 90.3772 44.4866 90.3772L45.358 90.871L46.2294 91.3649C45.026 90.4759 47.0593 90.4759 48.7606 90.3772C48.3456 89.9821 48.0137 89.6858 47.7647 89.4882C47.7647 89.4882 48.4286 89.587 49.051 89.6858L50.3374 89.8833C50.5864 90.0809 50.2544 90.1796 49.7565 90.3772C49.9639 90.3772 50.1299 90.3772 50.2544 90.3772C51.0428 90.871 50.4619 91.0686 49.715 91.2661C49.466 91.0686 49.217 90.871 48.968 90.6735C48.2211 90.871 47.4742 91.1673 47.4327 91.5624C47.7232 91.5624 48.0137 91.5624 48.3456 91.5624C48.1381 91.6612 48.0137 91.6612 48.0552 91.76C48.3456 91.8588 48.6361 91.76 48.9266 91.76L49.2585 92.6489L49.5075 92.3526C49.5075 92.3526 50.2959 92.6489 51.1258 92.9453C51.9557 93.2416 52.7441 93.5379 52.7441 93.5379C55.3998 93.3403 57.765 92.6489 61.6656 92.9453C60.5867 93.3403 61.2921 93.8342 61.0847 94.4268C60.1718 93.6367 58.014 94.2293 56.0222 93.7354C57.0596 94.0317 56.7277 94.2293 56.4372 94.3281C56.4372 94.3281 57.3916 94.3281 58.3045 94.3281C59.2174 94.3281 60.1718 94.3281 60.1718 94.3281C59.9643 94.8219 60.8357 94.8219 61.7486 95.217C61.2506 94.1305 64.5702 94.9207 66.1056 94.7232C66.1471 95.1182 65.7321 95.4146 63.9478 95.1182C65.8151 96.106 66.6865 94.2293 68.5538 95.0195C68.2633 94.9207 67.9729 94.9207 67.6824 95.1182C68.7613 94.9207 71.2095 95.3158 70.6285 95.6121H70.1721C71.6244 95.8097 73.8652 95.9084 75.8155 95.8096C77.7242 95.7109 79.3425 95.4146 79.55 95.0195C79.5915 95.1182 79.1766 96.106 79.0106 96.3035L79.8405 95.8096L81.5833 94.7232C82.2057 94.3281 82.8281 93.933 83.2846 93.6367L84.0315 93.1428C83.6166 93.933 85.5668 95.6121 83.1601 96.2047C84.1975 96.3035 85.1934 96.3035 86.2307 96.0072C85.7328 95.9084 84.9444 95.0195 85.5668 94.9207C87.4341 95.6121 86.8532 95.3158 89.1354 95.8096C88.3885 95.7109 89.0109 94.4268 90.1313 94.3281C90.0068 94.5256 90.4218 95.5133 90.0483 95.7109L91.3347 94.9207C91.9986 94.5256 92.621 94.1305 92.621 94.1305C91.9571 94.4268 92.704 95.1182 93.4094 95.3158C93.0775 95.1182 95.8576 94.9207 96.5631 94.7232H95.3182C98.5133 94.3281 97.9324 92.5502 100.92 91.8588C100.63 92.1551 100.505 93.5379 102.123 93.2416C102.372 92.8465 102.912 91.9575 103.617 90.9698C104.489 89.7845 105.402 88.8956 106.356 88.303L106.978 88.5005L107.808 88.0066C108.223 87.7103 108.638 87.5128 108.638 87.5128C107.974 88.5993 107.31 89.4882 106.563 90.2784C105.609 91.3649 104.655 92.2538 103.659 93.044C104.904 92.9453 104.157 93.3403 105.816 92.7477C106.563 92.8465 105.07 93.5379 104.572 93.6367L106.646 93.1428C107.684 92.9453 108.68 92.5502 108.68 92.5502C108.431 92.2538 109.095 91.8588 109.759 91.3649C110.422 90.871 111.086 90.4759 110.879 90.2784C110.879 90.2784 109.966 90.871 108.97 91.3649L107.642 91.8588C107.269 92.0563 107.02 92.1551 107.02 92.1551C106.771 91.8588 107.186 91.1674 107.974 90.4759C108.431 90.0808 108.929 89.6858 109.427 89.3895C110.049 88.9944 110.63 88.698 111.252 88.5005C112.082 88.5005 111.418 89.7845 111.584 89.9821C111.999 89.587 112.414 89.2907 112.871 89.0931C113.327 88.7968 113.742 88.5993 114.199 88.5005L113.286 89.3895C114.945 88.8956 115.153 87.5128 117.228 87.1177C117.85 86.8214 119.551 86.9201 119.385 86.525C117.892 86.4263 116.107 84.4508 116.273 83.5619L118.099 83.068C119.012 82.8705 119.966 82.4754 120.423 82.4754C121.751 82.3766 120.215 84.5496 121.377 84.4508C121.253 84.2533 121.585 83.7594 121.709 83.5619C122.415 83.2656 121.917 84.1545 123.078 83.2656C122.705 82.5742 125.485 81.4877 123.161 82.3766C124.116 81.3889 124.531 81.5864 125.734 80.4999C124.946 80.4999 125.568 78.5245 126.274 77.438C126.523 77.5368 126.772 77.6355 127.021 77.5368C127.518 77.0429 128.016 76.6478 128.431 76.2527C128.846 75.8576 129.22 75.4625 129.593 75.1662C130.382 74.4748 131.129 73.6846 131.834 72.6969C132.166 72.5981 133.079 71.7092 133.12 72.3018C133.162 71.7092 133.328 71.1166 133.535 70.8202C135.029 69.8325 132.664 72.3018 134.075 71.7092C133.701 71.4129 134.656 69.7337 134.863 68.6473C134.448 68.746 134.075 69.1411 133.784 69.8325C133.494 70.4252 133.245 71.1166 133.037 71.808C132.581 71.6104 132.373 70.919 132.415 70.1288C132.498 68.9436 132.705 67.9558 133.037 66.9681C133.743 65.0915 134.075 66.4743 134.075 66.0792C134.946 64.4 134.863 63.5111 134.739 62.8197C134.614 62.1283 134.614 61.4369 135.361 60.0541C136.357 59.0663 136.689 60.2516 137.228 60.1528C137.021 61.7332 135.984 62.4246 135.652 63.4123L136.44 62.2271C136.398 63.116 136.149 63.9062 135.818 64.3013C136.108 64.005 136.398 63.5111 136.647 63.0172C136.979 62.3258 137.27 61.5356 137.56 60.7455C138.141 58.9676 138.639 56.9921 139.179 55.6093C139.054 55.1154 138.93 54.1277 138.598 54.5228L138.556 55.4118C137.892 56.2019 138.1 53.6339 137.643 54.7204C137.477 53.5351 137.021 52.1523 137.436 50.4731L138.224 50.1768C138.017 50.1768 137.685 51.2633 137.892 51.7572C137.643 51.0658 139.054 49.1891 138.058 48.3989L137.519 49.5842C137.311 48.9916 137.062 48.3002 136.813 47.6087C136.564 47.1149 136.398 46.3247 136.44 45.5345C135.735 46.2259 136.564 45.8308 135.735 46.9173C136.232 46.4235 136.315 47.4112 136.315 48.2014C136.315 48.9916 136.274 49.8805 136.855 49.0903C135.818 50.0781 136.357 50.8682 135.361 52.251C135.61 52.251 135.901 51.7572 135.652 53.0412C135.735 53.14 135.776 53.2388 135.818 53.3375C135.859 53.4363 135.859 53.4363 135.818 53.3375C135.942 53.0412 136.108 52.8437 136.274 52.7449C136.813 53.4363 136.44 55.313 136.647 56.0044C136.357 56.6958 136.44 55.7081 136.066 56.0044L136.274 56.9921C135.693 56.9921 134.946 58.6712 134.988 56.9921L134.822 57.6835C134.78 57.9798 134.697 58.1774 134.614 58.3749C134.116 58.9676 133.743 59.8565 133.535 61.0418C133.162 61.6344 133.452 62.9185 133.286 62.2271C133.286 62.2271 133.245 62.3258 133.203 62.6221C133.162 62.9185 133.079 63.2148 132.996 63.4123L132.622 64.5976H132.498C132 65.6841 131.544 66.8694 131.046 68.0546C130.257 69.5362 129.386 70.6227 128.431 71.2153C128.224 71.6104 128.058 71.9067 127.809 72.4006C127.435 72.8945 127.021 73.3883 126.606 73.6846H126.025C125.527 74.2773 125.029 74.7711 124.531 75.1662C123.95 75.6601 123.452 76.0552 123.493 76.3515C122.539 76.3515 121.585 77.2404 120.506 78.1294L118.887 79.5122C118.348 79.9073 117.85 80.3024 117.394 80.4999L117.726 80.9938C117.145 81.3889 116.564 81.6852 116.024 82.1791C115.485 82.6729 114.862 83.068 114.157 83.5619L114.53 83.957C113.701 84.5496 112.871 85.0435 111.999 85.241L110.339 85.7349C109.759 85.9324 109.178 86.13 108.638 86.3275C109.012 86.0312 109.385 85.8336 109.759 85.8336C109.012 85.8336 108.265 86.0312 107.518 86.3275C106.812 86.6238 106.148 86.9201 105.485 87.3152C104.157 88.1054 102.746 88.5993 101.376 88.698C100.879 88.9944 100.339 89.0931 99.7997 89.0931C99.8412 89.0931 99.8827 89.0931 99.9657 88.9944C99.8827 88.9944 99.7997 88.9944 99.7167 89.0931C99.3847 89.0931 99.0528 89.0931 98.7208 89.0931C99.0113 89.0931 99.3432 89.1919 99.5507 89.1919C99.0528 89.2907 98.3059 89.587 97.6004 89.7845L97.144 89.3895L96.978 89.4882C96.1896 89.4882 96.4386 89.8833 96.9365 90.1796C96.6045 90.2784 96.3141 90.4759 96.0236 90.6735C95.1937 89.9821 94.0733 91.3649 93.036 90.5747C92.3305 90.9698 91.6251 91.1674 90.9197 91.3649C89.9653 91.6612 89.0524 91.9575 88.9279 92.3526C88.8864 92.2538 88.6375 92.2538 89.0524 92.1551C88.2225 92.0563 87.3511 92.1551 86.5212 92.4514L86.0648 91.8588C86.0648 91.8588 85.6083 92.1551 85.1519 92.3526L84.239 92.8465C83.0356 92.5502 82.5377 92.3526 83.658 91.76C80.9194 92.6489 81.4173 92.1551 79.0521 92.9453L79.1766 92.5502C78.3052 92.5502 76.9358 93.1428 76.4379 92.7477C75.4835 92.3526 73.1183 92.2538 70.3796 92.0563C67.6409 91.8587 64.5702 91.4637 62.205 90.7723C62.8689 92.1551 60.0888 89.8833 59.6738 90.7723C59.4663 90.4759 58.8439 90.1796 59.6738 90.0808C57.1426 89.9821 56.1467 88.9944 54.2794 89.3895C54.072 89.0931 54.9019 89.0931 54.7359 88.8956C54.4039 88.9944 54.0305 88.8956 53.6985 88.7968C53.491 88.5993 54.1135 88.5993 54.5284 88.5993C52.0802 88.1054 51.5407 88.8956 51.0843 89.6858C50.1714 88.9944 49.1755 88.7968 48.2211 89.1919C47.8892 88.7968 47.3082 88.303 48.8436 88.698C48.0137 88.4017 43.8641 86.8214 43.4907 87.414C43.0342 87.1177 42.5778 87.0189 42.0798 87.0189C40.2541 86.3275 40.0881 86.2287 38.3038 85.5373L38.7602 85.8336C37.6399 86.2287 37.1834 85.4386 35.6896 84.8459L35.7726 84.7471C32.8679 82.7717 34.1958 84.3521 31.4986 82.2778L31.3741 82.7717C30.8761 83.1668 30.2952 82.6729 29.5898 81.9815C28.8014 81.0926 27.9715 80.4999 27.1001 80.1048L27.515 80.6975C27.0171 80.5987 26.5191 80.0061 26.1872 79.1171C25.9382 78.3269 25.6062 77.7343 25.2328 77.2404C25.1083 77.0429 25.6477 77.3392 25.9797 77.438C24.1954 75.4625 25.1498 77.8331 23.3655 76.7466C23.324 76.2527 24.4444 76.3515 23.407 75.4625C23.241 75.1662 22.2451 74.7711 21.1663 74.2773C20.0874 73.7834 18.967 72.9932 18.5936 72.2031C18.6351 72.6969 18.718 73.092 17.8466 72.5981C16.6848 71.7092 16.1453 69.2399 14.527 68.8448C14.4855 68.6472 14.527 68.5485 14.5685 68.5485C13.6556 67.8571 12.1203 66.0792 11.3319 65.6841C11.6639 65.289 11.5394 64.7951 11.2489 64.2025C10.8755 63.5111 10.4605 62.9185 10.0455 62.4246C9.13265 61.2393 8.38574 59.9553 9.29863 59.7577C9.21564 59.659 9.17415 59.4614 9.09116 59.3627C9.00816 59.0663 8.88368 58.77 8.75919 58.3749L8.42723 57.3872C8.38574 57.2884 8.30275 57.0909 8.26125 56.8933H8.46873C8.17826 55.0167 7.59733 54.424 7.09939 53.7326C7.18238 53.2388 7.38985 53.6339 7.51434 53.6339C7.51434 52.9425 7.51434 52.3498 7.51434 51.9547C7.55583 51.5596 7.51434 51.1646 7.47284 50.7695C7.38985 50.3744 7.30686 49.9793 7.18238 49.683C7.05789 49.2879 6.9334 48.794 6.72593 48.2014L7.34836 48.0038C7.26537 47.8063 7.30686 47.51 7.38985 47.0161C7.51434 46.5222 7.72181 46.0284 7.88779 45.337C8.05378 44.7443 8.34424 44.0529 8.51022 43.2628C8.59321 42.9664 8.6762 42.5714 8.7177 42.1763C8.80069 41.8799 8.84218 41.4849 8.88368 41.0898C8.92517 41.0898 9.04966 41.1885 9.04966 41.4849C9.13265 39.9045 10.2115 38.1266 11.1659 36.7438C12.0788 35.2622 12.8257 34.0769 12.1203 33.188L12.2033 32.8917C12.2863 32.5953 12.3278 32.3978 12.4108 32.2003L12.7842 31.2125C11.0414 33.5831 12.1618 30.4224 11.1659 31.3113C11.7054 30.3236 13.4067 29.1383 12.7012 30.3236L12.4938 30.4224C13.1577 31.3113 14.9835 27.6567 15.6059 28.1506C17.5977 25.7801 19.6724 23.8046 21.7887 22.2243C24.0709 20.4463 26.5191 18.9648 28.9259 17.4832L28.3864 17.3844L27.764 16.7918C27.764 16.7918 28.1789 16.4955 28.6354 16.2979L29.5068 15.804C30.0877 15.7053 30.5027 15.9028 29.2578 16.5942C30.1707 16.5942 31.0421 15.1126 31.0006 14.9151C33.6563 13.9274 30.6272 16.1991 31.3741 15.804L32.37 15.2114H32.0795C32.7019 14.52 32.5359 14.1249 34.1543 13.4335C35.2331 13.1372 34.9427 13.6311 35.3576 13.4335C35.3991 13.4335 35.5236 13.4335 35.98 13.1372C35.98 13.1372 36.561 12.8409 37.1419 12.6433L38.3453 12.1495L37.1004 12.0507C37.9718 11.3593 39.3412 11.1617 37.8888 10.9642C38.9677 11.063 41.2499 10.2728 43.4907 9.58139C45.7314 8.88999 47.8892 8.19858 48.4701 8.19858C50.0884 7.30963 51.7897 6.81576 53.4495 6.61822C52.9101 6.61822 52.4122 6.02559 54.155 5.72927C53.906 7.21085 57.4746 5.72927 59.0514 6.51945C57.682 6.02559 63.9063 5.72927 61.7901 5.03786C63.2424 4.93909 61.9561 5.53172 63.1179 5.72927C66.479 4.84032 70.753 5.43295 74.9855 5.13664C75.0685 4.93909 74.3216 4.64277 75.2345 4.34646L77.5168 5.23541C78.3467 5.13664 78.3052 4.14891 79.8405 4.84032C79.633 4.64277 79.301 4.44523 79.882 4.34646C84.073 4.84032 88.3885 4.93909 92.7455 5.23541C97.0195 5.43295 101.294 6.12436 105.526 7.50717C104.447 7.01331 105.236 7.11208 106.107 7.21085C105.568 7.01331 106.231 6.71699 106.148 6.51945L109.551 7.70472C110.339 7.11208 113.369 8.29735 113.908 7.70472L112.746 7.60594C114.447 7.11208 111.045 5.53172 111.46 4.64277C109.593 5.23541 107.227 2.66733 104.198 3.55628C103.617 3.25996 104.779 3.35873 104.489 3.06242C103.41 3.35873 102.331 3.35873 101.252 2.96364L101.459 2.86487C96.9365 2.46978 95.1107 1.77838 90.0068 1.08697L90.3388 1.58083C89.7163 1.48206 89.1354 1.38329 88.513 1.08697C87.1851 1.77838 91.5836 1.38329 90.3388 2.07469C88.9694 1.28451 82.6207 1.97592 81.6663 0.889424C79.965 0.889424 82.1227 1.48206 80.4629 1.38329L80.0065 1.08697L79.55 1.48206C78.4296 1.38329 77.8902 0.988197 77.8487 0.69188C78.1392 0.69188 78.6371 0.593107 78.9276 0.593107C77.4753 0.198018 74.8196 0.69188 74.3216 0.593107L75.9814 0.790652C71.334 1.08697 65.6076 0.988197 61.2091 2.27224L61.5826 2.46978C58.263 3.35873 58.8024 2.56855 55.1508 3.35873L55.2753 3.25996C54.4039 3.65505 53.5325 3.95137 52.6196 4.14891C53.4495 3.65505 50.7108 4.05014 51.8312 3.45751C48.3456 4.74155 50.1299 4.14891 48.0966 5.6305L47.4742 5.33418C46.6858 6.02559 45.8974 6.51945 45.0675 6.71699C46.3953 5.92681 43.6982 6.51945 45.1505 5.6305C43.6567 5.72927 42.2043 6.12436 40.752 7.01331C39.7976 7.60594 38.7602 7.90226 37.7643 7.70472C36.6855 9.1863 41.2084 7.01331 40.42 7.60594C41.3744 7.60594 39.4242 8.79121 38.2623 9.1863C37.5569 9.28507 36.8514 9.38385 36.146 9.28507C35.0257 9.28507 33.8638 9.48262 32.7849 10.0753C33.0754 9.97648 33.0339 9.87771 33.3244 9.77894C32.121 9.87771 31.4571 10.8654 29.9217 11.1617C29.6313 12.0507 28.2619 11.9519 28.5939 12.7421L30.9591 11.2605C30.3367 11.7544 29.8388 12.347 29.1748 12.9397C28.3034 13.7298 27.3905 14.3225 26.4776 14.6188C26.7681 14.1249 27.1001 13.7298 27.432 13.4335C26.6021 13.6311 26.2702 14.3225 25.4403 14.52C25.2328 14.1249 25.8967 13.6311 26.8096 13.1372C27.681 12.6433 28.5109 12.0507 29.3408 11.3593C28.3449 11.4581 26.8926 13.4335 27.0586 12.2482C26.8926 13.0384 26.2287 13.3347 25.4403 13.7298C24.6934 14.1249 23.7805 14.6188 23.241 15.5077L22.992 15.1126C22.6601 15.6065 22.2866 16.0016 21.9132 16.2979L22.2866 15.2114C21.3322 16.5942 19.2575 16.693 18.2616 17.977C20.8758 15.9028 19.3405 17.977 20.7098 17.3844C18.0956 20.4463 17.7222 17.8783 14.5685 21.1378C14.9005 20.6439 16.5603 19.7549 16.0209 20.5451C15.2739 21.1378 14.4855 21.6316 13.6971 22.0267C11.7054 24.2985 14.4855 22.0267 13.9046 23.1132C12.6182 23.5083 13.1577 24.3972 12.5353 25.385L12.0373 25.0886C9.63059 27.558 12.5353 26.3727 10.336 28.5457C10.336 28.3481 10.336 28.0518 10.336 27.8543C10.336 27.558 10.3775 27.1629 10.3775 27.1629L10.0041 27.8543C9.87957 28.0518 9.75508 28.2494 9.67209 28.5457L9.25714 27.953C8.80069 29.6322 8.30275 29.9285 7.34836 31.3113C7.92929 31.1138 8.21976 31.9039 7.55583 33.188C6.76742 33.9782 7.26537 32.4966 6.47696 34.3732C6.35247 33.8794 6.06201 33.188 7.0164 32.5953C6.89191 32.4966 6.89191 32.1015 6.76742 31.9039C5.81303 32.6941 5.48107 34.2745 5.14911 34.9659C5.31509 34.6696 5.43958 34.472 5.64705 34.2745C5.64705 34.2745 5.52257 34.9659 5.39808 35.7561C5.31509 36.4475 5.2736 37.2376 5.2736 37.2376C4.90014 37.6327 4.85864 37.2376 4.81715 36.8426C4.65117 37.4352 4.77565 37.8303 4.52668 38.7192C4.11173 38.4229 3.61379 38.3241 3.86276 37.1389C3.77977 37.6327 3.69678 38.0278 3.61379 38.5217C3.5308 39.2131 3.44781 39.9045 3.44781 39.9045C3.19884 40.0033 2.45192 41.1885 2.36893 40.7934C2.03697 41.4849 2.07847 42.4726 2.03697 43.5591C2.07847 44.3493 2.16146 45.4358 1.82949 46.4235C1.95398 46.621 2.03697 46.9173 2.03697 47.2137C1.788 49.0903 1.16557 50.8682 2.07847 53.14L1.37305 54.5228C1.82949 56.3007 2.20295 52.6461 2.99136 55.6093C3.69678 57.5848 2.41043 56.4983 2.32744 57.2884C2.6594 57.6835 3.19884 58.2762 3.65528 59.0663C3.86276 59.3627 4.02874 59.8565 4.19472 60.3504C4.3607 60.7455 4.44369 61.2393 4.48519 61.7332C4.19472 61.3381 3.94575 60.7455 3.73827 60.1528ZM17.9296 78.1294C17.4732 77.9319 16.5188 77.5368 16.4773 77.1417C16.9752 76.9441 17.5147 77.3392 17.9296 78.1294ZM51.9142 92.0563C51.4163 92.0563 50.9598 91.9575 50.4619 91.5624C50.9598 91.6612 51.4578 91.76 51.9142 92.0563ZM134.697 59.8565C134.241 60.6467 134.407 60.3504 134.697 59.8565V59.8565ZM135.444 58.1774C135.403 57.9798 135.32 57.9798 135.237 58.0786C135.361 58.1774 135.278 58.5725 135.071 59.0663C135.278 58.9676 135.444 58.77 135.444 58.1774ZM35.4406 13.3347L35.0257 13.4335C35.7726 12.8409 35.6066 13.1372 35.4406 13.3347Z" fill="white"/>
<path d="M47.5156 91.9574C47.4741 91.8587 47.4741 91.7599 47.4741 91.6611C47.4326 91.6611 47.3911 91.7599 47.5156 91.9574Z" fill="white"/>
<path d="M1.53857 46.423C1.53857 46.3242 1.53857 46.3242 1.49707 46.3242L1.53857 46.423Z" fill="white"/>
<path d="M133.702 85.1426C133.619 85.2414 133.494 85.3401 133.411 85.4389C133.411 85.4389 133.494 85.4389 133.702 85.1426Z" fill="white"/>
<path d="M138.059 48.9912L138.1 49.9789C138.1 49.6826 138.1 49.3863 138.183 49.09C138.142 49.09 138.059 49.2875 138.059 48.9912Z" fill="white"/>
<path d="M138.847 38.8181C138.805 38.7193 138.805 38.5218 138.764 38.3242L138.681 38.423C138.764 39.1144 138.888 39.5095 138.847 38.8181Z" fill="white"/>
<path d="M138.722 47.8058C138.888 47.707 138.805 47.0156 138.763 46.3242V46.423C138.514 46.3242 138.639 47.0156 138.722 47.8058Z" fill="white"/>
<path d="M138.764 46.0283C138.764 45.8308 138.764 45.5345 138.764 45.3369C138.64 45.3369 138.722 45.6332 138.764 46.0283Z" fill="white"/>
<path d="M138.058 56.0042C138.141 55.7079 137.85 55.7079 137.933 55.5104C137.767 55.0165 138.016 57.8809 138.058 56.0042Z" fill="white"/>
<path d="M139.013 53.6339C139.013 53.6339 139.055 53.3376 139.055 53.0413L139.096 52.4487C139.055 52.4487 139.055 52.3499 139.055 52.1523C139.013 52.8438 138.93 53.6339 139.013 53.6339Z" fill="white"/>
<path d="M137.519 67.2644L137.353 68.5484C137.394 68.746 137.477 68.4496 137.56 67.9558C137.56 67.5607 137.643 67.1656 137.519 67.2644Z" fill="white"/>
<path d="M138.681 63.6104C138.598 63.9067 138.557 63.9067 138.474 64.1042L138.723 64.3018L138.681 63.6104Z" fill="white"/>
<path d="M138.141 67.7586C138.182 67.9562 137.975 69.7341 138.265 68.1537C138.224 67.9562 138.39 66.6721 138.141 67.7586Z" fill="white"/>
<path d="M132.539 85.142L132.664 84.9445L132.415 84.1543L132.539 85.142Z" fill="white"/>
<path d="M99.8407 94.7231C100.546 94.5255 99.9237 94.0317 100.588 93.9329C100.712 93.6366 100.048 94.0317 100.214 93.7354C99.7992 94.2292 99.5502 94.2292 99.8407 94.7231Z" fill="white"/>
<path d="M100.132 93.7358C100.215 93.637 100.256 93.5382 100.339 93.4395C100.256 93.5382 100.173 93.637 100.132 93.7358Z" fill="white"/>
<path d="M113.991 8.29701L114.406 8.6921L114.157 8.19824L113.991 8.29701Z" fill="white"/>
<path d="M131.087 8.00098L131.129 8.69238L131.419 8.29729C131.336 8.19852 131.17 8.19852 131.087 8.00098Z" fill="white"/>
<path d="M7.38961 82.3763L7.4726 82.2775C7.4726 82.0799 7.38961 81.8824 7.22363 81.4873L7.38961 82.3763Z" fill="white"/>
<path d="M3.44824 68.8453L3.48974 69.1416L3.57273 68.4502L3.44824 68.8453Z" fill="white"/>
<path d="M1.29004 56.3994C1.33153 56.8933 1.41452 57.4859 1.45602 58.0785C1.29004 56.8933 1.58051 56.1031 1.29004 56.3994Z" fill="white"/>
</mask>
<g mask="url(#mask0_5_1555)">
<path d="M114.821 6.61782C113.991 6.71659 113.161 6.71659 112.331 6.42027C108.099 5.235 105.402 6.22273 101.667 5.03746C99.136 4.24728 95.111 4.14851 92.5797 3.4571C85.6086 1.38288 78.6789 2.76569 71.6662 3.16078C68.4295 3.35833 65.3589 4.74114 62.1223 4.5436C53.9062 4.04973 45.5242 7.80308 37.4326 11.1613C25.316 16.2975 8.46896 27.0637 4.40243 43.9538C4.11196 51.0654 4.02897 51.7568 5.23233 56.9917C6.60168 62.9181 7.51457 63.3131 8.38597 64.3009C12.3695 69.1407 16.1041 76.1535 20.5441 77.6351C22.5773 78.3265 24.6106 80.7958 26.6439 81.586C31.9552 83.6602 37.2666 88.3025 42.5365 88.4013C44.4453 88.4013 45.5657 88.105 47.3915 89.389C49.0098 90.5743 50.5866 89.1915 52.2049 90.278C53.5328 91.1669 54.9436 90.0804 56.3129 90.0804C58.5122 90.0804 61.8318 92.7473 64.031 93.0436C70.2553 93.735 71.8321 94.7227 76.6456 93.3399C82.2474 91.7596 88.1813 92.451 93.7416 90.8706C96.4803 90.0804 99.1775 89.389 101.916 88.5989C109.178 86.5246 116.647 84.3516 123.203 76.7462C124.49 75.2646 126.066 73.4867 127.311 75.1658C127.975 74.3756 128.722 74.1781 129.427 73.4867C132.54 70.5235 135.901 61.2389 136.897 58.4733C137.727 53.0408 137.602 47.312 137.768 40.1016C137.934 32.0023 136.44 24.2981 134.988 16.8901C134.116 12.5442 132.913 9.58099 131.046 7.90186C129.842 6.81536 128.681 5.43255 127.394 5.13623C125.651 4.64237 125.278 5.43255 123.162 5.72886C121.377 6.02518 119.054 4.74114 117.269 5.72886C116.439 6.12395 115.651 6.42027 114.821 6.61782Z" stroke="#202020" stroke-width="8.96282" stroke-miterlimit="10" stroke-dasharray="448.14 448.14"/>
</g>
</g>
<defs>
<clipPath id="clip0_5_1555">
<rect width="139" height="99" fill="white"/>
</clipPath>
</defs>
</svg>
