<svg width="84" height="65" viewBox="0 0 84 65" fill="none" xmlns="http://www.w3.org/2000/svg">
<rect width="84" height="65" fill="#FBED81"/>
<g clip-path="url(#clip0_5_497)">
<mask id="mask0_5_497" style="mask-type:luminance" maskUnits="userSpaceOnUse" x="21" y="30" width="47" height="6">
<path d="M22.707 32.9458C22.6739 32.927 22.6391 32.9117 22.603 32.8999C22.714 32.8794 22.7663 32.8779 22.707 32.9458Z" fill="white"/>
<path d="M21.2325 32.7643C21.6938 32.7046 22.1627 32.7507 22.6035 32.8993C22.2395 32.9736 21.2247 33.3293 21.2325 32.7643Z" fill="white"/>
<path d="M22.5693 33.8684L22.1168 33.717C22.4392 33.5516 22.3254 33.8224 22.5693 33.8684Z" fill="white"/>
<path d="M22.5127 33.3426L22.5834 33.1304L22.7998 33.3242L22.5127 33.3426Z" fill="white"/>
<path d="M41.6601 31.5004C41.6258 31.3967 41.6329 31.2837 41.6799 31.1851L41.6601 31.5004Z" fill="white"/>
<path d="M42.3333 32.1868C42.4043 32.2125 42.4777 32.231 42.5525 32.2419C42.5141 32.2479 42.4749 32.2462 42.4373 32.2367C42.3996 32.2273 42.3642 32.2103 42.3333 32.1868Z" fill="white"/>
<path d="M40.8383 31.5322L41.0469 31.5004C40.9822 31.5321 40.9094 31.5432 40.8383 31.5322Z" fill="white"/>
<path d="M31.1885 32.246C31.0365 32.0997 30.8901 31.9674 30.7777 31.8762C31.1815 31.7044 31.132 32.0481 31.1885 32.246Z" fill="white"/>
<path d="M45.7588 34.5682L45.8493 34.3999C45.8825 34.4756 45.891 34.5491 45.7588 34.5682Z" fill="white"/>
<path d="M42.0633 34.3504C42.0761 34.2721 42.1034 34.1968 42.1439 34.1284C42.1611 34.1407 42.1776 34.1539 42.1934 34.168L42.0633 34.3504Z" fill="white"/>
<path d="M40.2102 31.7987L40.1932 31.8157L40.0567 31.7145C40.1522 31.6813 40.2017 31.711 40.2102 31.7987Z" fill="white"/>
<path d="M46.9243 34.6934C46.9796 34.8094 47.0148 34.934 47.0283 35.0619C46.9682 35.0245 46.9242 34.966 46.9049 34.8978C46.8857 34.8297 46.8926 34.7567 46.9243 34.6934Z" fill="white"/>
<path d="M42.5488 32.2339V32.241L42.5205 32.2353C42.5311 32.2333 42.5375 32.2368 42.5488 32.2339Z" fill="white"/>
<path d="M40.8357 34.168C40.9148 34.1948 40.9905 34.214 41.0732 34.25C41.0523 34.2603 41.0295 34.2663 41.0062 34.2678C40.9829 34.2692 40.9595 34.266 40.9374 34.2584C40.9153 34.2508 40.895 34.2389 40.8775 34.2234C40.8601 34.2078 40.8459 34.189 40.8357 34.168Z" fill="white"/>
<path d="M31.1218 32.1599L31.2483 32.2865C31.2155 32.2841 31.1847 32.27 31.1615 32.2467C31.1383 32.2235 31.1242 32.1927 31.1218 32.1599Z" fill="white"/>
<path d="M24.1129 32.5133C24.2728 32.5034 24.2855 32.6236 24.2869 32.741C24.2057 32.6859 24.1446 32.606 24.1129 32.5133Z" fill="white"/>
<path d="M66.7136 32.7593L66.7744 32.765C66.7646 32.7692 66.7539 32.7708 66.7433 32.7698C66.7327 32.7689 66.7225 32.7652 66.7136 32.7593Z" fill="white"/>
<path d="M60.8451 32.1599C60.8227 32.1178 60.8076 32.0721 60.8005 32.0249C60.8635 31.9831 60.8712 32.0602 60.8451 32.1599Z" fill="white"/>
<path d="M57.7845 35.3952L57.1039 34.9804C57.0459 35.1373 56.692 35.1775 56.8863 35.3606L56.6482 35.087L56.627 35.268C55.3309 35.5649 54.601 34.231 53.1976 34.9846L53.2032 35.0524L52.592 34.6191C52.4507 34.6629 52.3368 34.979 52.0959 35.0899C52.2796 34.752 51.6945 35.0432 51.6316 34.7498C51.4302 34.8848 51.5814 34.9754 51.5941 35.1097C50.8303 35.4228 50.4204 34.8573 49.6155 35.0785C50.0491 34.8366 50.5179 34.6639 51.0048 34.5667C50.4479 34.3618 50.2636 34.6989 49.6417 34.5845L49.9074 34.7428C49.4523 35.2362 48.9817 34.4501 48.7463 35.0121C48.3768 34.9252 48.1797 34.3604 47.6835 34.4508L47.7683 34.9457L47.3366 34.9464L47.4108 34.6078C47.36 34.5956 47.3065 34.6015 47.2595 34.6245C47.2126 34.6474 47.1751 34.686 47.1535 34.7336C46.9507 34.3441 46.4858 34.5533 46.1529 34.2529L46.0674 34.419C46.0446 34.3807 46.0261 34.3399 46.0123 34.2975C45.8618 34.5894 45.5635 34.4805 45.483 34.7505C45.5981 34.8163 45.8639 34.9733 45.8815 34.793C46.1324 35.1287 45.4335 34.9754 45.2166 34.9761C45.4851 34.8205 45.1968 34.7739 45.0809 34.7074C45.0499 34.7526 45.0879 34.7753 45.09 34.8396C44.642 35.022 44.7 34.1667 44.2902 34.7534L44.293 34.4381L43.922 34.6679C44.0399 34.0381 43.4839 34.6057 43.5686 34.0204C43.2054 34.002 43.534 34.3802 43.4174 34.313C43.0471 34.4359 42.5793 33.8606 42.3949 34.1568C42.149 33.9391 41.7956 34.0762 41.5759 33.9497L41.4959 34.219C41.3808 34.1532 41.2579 34.0204 41.1194 34.0671C41.1114 34.1053 41.118 34.1451 41.1378 34.1787C40.7327 34.0475 40.3084 33.9854 39.8828 33.9949C39.8658 34.1744 39.841 34.2868 40.0636 34.3512C39.6212 34.6043 39.1244 34.0055 38.5196 34.1045L38.5295 34.236L38.2546 34.0161C38.3034 34.1088 38.2362 34.1956 38.2129 34.308C37.6391 34.3646 36.9507 34.3547 36.7833 33.8196C36.9076 33.9526 36.4603 34.1426 36.7339 34.3583C36.247 33.9971 35.5056 34.0812 34.9008 33.9907L34.9184 33.973L34.6867 33.8429L34.6563 33.8889L34.8195 33.9815C34.588 33.9523 34.3708 33.8537 34.1963 33.6988C34.1145 33.8678 33.9954 34.0159 33.8479 34.132C33.9179 33.7949 33.0486 34.4409 32.8232 34.0656C32.7617 34.1568 32.9412 34.1313 32.8091 34.2465C32.0409 34.1992 30.9782 33.8048 29.9909 34.0784C30.0595 33.4273 29.2411 33.6111 28.808 33.3106C28.5995 33.6973 29.049 33.5051 29.1203 33.7928C28.8568 33.7115 28.9585 34.2671 28.5218 33.9674C28.5288 34.0352 28.4998 34.0798 28.6059 34.077C28.3218 34.108 28.7684 33.6019 28.3098 33.7285L28.2349 33.9999L28.0455 33.6478C27.1241 33.8316 26.4053 33.6372 25.5673 33.9341C25.5341 33.8741 25.5814 33.7419 25.6952 33.6648C25.3418 33.6832 25.0238 33.2406 24.5645 33.5234L24.6493 33.6323C23.9554 33.8811 24.0649 33.3206 23.3236 33.2392C23.5025 33.2103 23.8558 33.3969 23.9596 33.0795C23.9356 32.8802 23.5392 32.9191 23.376 33.0824L23.5173 32.7205C23.5802 32.9402 23.8691 32.9071 24.0649 33.0109C24.0127 32.9827 24.0148 32.907 24.0077 32.8378C24.1759 32.9522 24.4352 32.9417 24.6902 33.0314L24.2911 33.0689C24.3744 33.4224 24.9461 33.0456 25.0712 33.1749C25.139 32.837 24.8903 32.8908 25.1835 32.6131C25.8598 32.4766 25.4839 32.9586 26.0309 33.2513L25.9001 33.3679C26.0866 33.4061 26.1665 33.7603 26.4994 33.5023C26.5431 33.2774 26.3262 33.2852 26.2407 33.1771C26.3305 33.0406 26.5093 33.5701 26.7714 33.3361C26.6562 33.0272 26.2061 32.912 25.879 32.9227C25.9414 32.8221 25.9648 32.7021 25.9446 32.5855C26.853 32.9451 27.8327 33.0876 28.8058 33.0017C28.3932 32.589 29.0243 32.994 29.0059 32.5487C29.0087 32.8611 29.3712 32.5593 29.6065 32.6858C29.7832 32.345 29.1373 32.4327 29.4016 32.198C29.8863 32.2716 30.4326 32.8802 31.1095 32.7515C31.0934 32.618 30.9449 32.5996 30.9371 32.5338C31.3499 32.6328 31.7336 33.4054 32.1441 32.8817C31.9844 32.6907 31.7887 32.4851 31.6056 32.302C31.707 32.2866 31.8016 32.2413 31.8771 32.1719L31.7752 31.9288C32.313 31.846 32.0565 32.4575 32.2763 32.7635L32.6712 32.4179C32.9191 32.3054 33.2001 32.2901 33.4586 32.3749C33.7172 32.4597 33.9346 32.6385 34.0677 32.876C34.1772 32.8724 34.6103 32.8633 34.5044 32.5522C34.3093 32.1309 34.2401 31.8424 33.6563 31.8326C33.5058 32.1245 34.0211 32.1605 33.8422 32.1868C33.6189 32.1274 33.1342 32.3592 32.9963 32.0955L33.6175 32.1245C33.7115 31.6743 33.361 32.1083 33.2987 31.8863C33.5483 31.5223 33.8111 31.9196 34.1135 31.7118L34.0755 31.6906C34.5587 31.7725 34.51 31.68 34.9644 31.8729C34.9022 32.2773 34.7396 32.1245 34.4677 32.2878C35.2704 32.2907 36.1918 33.0527 37.1621 32.3422L36.76 31.991C37.0787 31.9182 37.519 32.2907 37.6073 31.7725C37.2249 31.9372 37.4454 31.6191 37.2907 31.5322L37.2596 31.5774C37.2215 31.5562 37.1055 31.4912 37.2038 31.4213C37.4504 31.654 37.7401 31.8363 38.0567 31.9577C37.955 31.8447 38.2624 31.6814 38.314 31.6028C38.579 31.687 38.2659 31.8277 38.2129 31.9867C38.3613 32.0065 38.5394 32.2949 38.7273 32.0221C38.9916 31.793 38.5196 31.7803 38.4962 31.5788L39.2609 31.945L39.2531 31.8778C39.2635 31.9019 39.279 31.9235 39.2985 31.9412C39.3179 31.9589 39.3409 31.9722 39.3658 31.9804C39.3908 31.9885 39.4172 31.9913 39.4434 31.9885C39.4695 31.9857 39.4947 31.9774 39.5174 31.9641C39.6424 31.7824 39.4573 31.7415 39.3167 31.7873C39.8248 31.5138 39.9612 32.3881 40.4671 31.8298L40.6778 31.9924C40.7102 31.9471 40.7731 31.8559 40.7349 31.8347L40.9342 32.0115C41.3519 32.1846 41.1456 31.6276 41.32 31.535L41.2968 31.5385C41.4515 31.4756 41.5936 31.3124 41.5073 31.2643L41.9321 31.5053L41.9314 31.4961C42.0416 31.8283 42.7263 31.911 42.5793 32.5091C42.7172 32.4631 42.8465 32.3521 42.8076 32.2667C43.1546 32.3055 42.8316 31.8015 43.3835 31.8955C43.4103 31.781 43.339 31.8071 43.2606 31.7625C43.4132 31.7513 43.4655 31.7923 43.4754 31.8559C43.496 31.7743 43.5291 31.6963 43.5736 31.6248C43.5248 31.8489 43.7735 31.8022 43.9128 31.7562L43.7991 31.3753C43.8895 31.5548 43.9672 31.5986 44.2159 31.552L44.1185 31.306C44.488 31.393 44.0258 31.8227 44.5467 31.6156L44.0661 31.8418C44.546 31.9273 44.2697 32.4016 44.4379 32.6251C44.8717 33.0039 45.6717 32.3268 45.8914 33.0894C46.0109 32.8413 45.9664 32.7515 46.1628 32.548C46.0269 32.5235 45.9025 32.456 45.8079 32.3555C45.7133 32.2549 45.6534 32.1267 45.6371 31.9896C45.0907 31.61 45.2603 32.9135 44.6957 32.3317C44.806 32.0178 45.0244 32.0158 45.1848 32.1719C45.2667 31.9019 45.0668 31.7245 44.9452 31.5887C45.3127 31.7401 45.9678 31.4043 46.2087 31.446C46.2971 31.5909 46.5677 31.7937 46.7253 31.7139C46.6595 31.921 47.2482 32.0772 46.9486 32.5027C47.3563 32.6137 47.3606 31.9153 47.6616 32.4101C47.5867 32.0524 47.9973 32.162 47.8941 31.8467C47.6736 32.1606 47.3323 31.6453 47.1655 31.4205L47.8341 31.2409C47.6595 31.3307 47.8284 31.5562 47.9047 31.5944L48.056 31.3018C47.981 32.0214 49.2728 30.8056 49.3851 31.6417C49.2 31.5979 48.9711 31.8439 48.9682 31.4622C48.5562 31.6637 48.9138 32.0016 48.6856 32.2497C49.183 32.5423 50.1504 32.0892 50.6338 32.6321C50.5766 32.4066 50.2896 32.4291 50.3342 32.1358C50.8246 31.9804 51.2119 32.6575 51.6698 32.929L51.6677 32.5466C52.0252 32.8859 51.8733 32.4116 52.317 32.5486C52.2867 32.5946 52.1891 32.7289 52.2994 32.7289C52.6923 32.7091 52.4111 32.4165 52.693 32.3253C53.0372 32.9128 53.0174 31.9429 53.5523 32.2631L53.5431 32.1309C53.9615 32.3825 54.7083 31.87 55.2405 31.8071C55.1783 31.8976 54.8116 31.8021 54.7698 32.1634L55.3939 32.2815C55.4568 32.1917 55.7423 32.1719 55.6172 31.9676C55.5402 31.9216 55.437 31.9882 55.3691 32.0108L55.5055 31.8248C56.0624 32.0327 55.3373 32.3634 55.2554 32.7055C55.6052 32.5961 55.6355 32.9346 55.8518 32.936C56.0377 32.5989 55.5295 32.5515 55.8907 32.1903C56.1273 32.0114 56.6942 32.2872 56.8263 32.63C57.3337 31.8467 58.1103 32.5105 58.2728 31.904C58.241 31.9486 58.296 32.1761 58.4685 32.0871L58.4198 31.9295C58.9363 31.6658 58.7208 32.4963 59.0324 32.367C59.0594 32.2525 58.9822 32.208 58.9709 32.0722C59.6069 31.9479 59.7193 32.8534 60.4062 32.5041C60.4005 32.4363 60.3984 32.3705 60.3271 32.3896C60.32 32.3218 60.4274 32.3247 60.5849 32.4851L60.3151 32.7056C60.4479 33.4309 61.2266 32.4285 61.6725 32.6398C61.664 32.5069 61.3001 32.4752 61.539 32.2985C61.8612 32.3041 61.635 33.0689 62.1099 32.7169C61.9587 32.6236 62.1021 32.2695 61.9566 32.1903C62.216 32.15 62.4435 31.9479 62.4647 32.2278C62.5041 32.206 62.5383 32.176 62.565 32.1398C62.5917 32.1035 62.6103 32.0619 62.6194 32.0179C62.7261 32.2362 63.0186 32.0962 63.2045 32.0377L63.1975 31.9033C63.3274 32.6301 63.7042 31.962 64.102 32.0136L64.0865 31.81C64.2363 31.9033 64.4348 32.1585 64.8065 31.8729L64.7161 31.6213C64.9104 31.8072 65.4546 31.4382 65.557 31.8248C65.6602 31.7598 65.4489 31.3675 65.8438 31.357C65.8926 31.5173 66.1548 31.6821 66.3173 31.46C66.3463 31.3477 66.3343 31.2112 66.2007 31.3223C66.1301 31.3421 66.1661 31.3653 66.1717 31.4347L66.0856 31.2523C66.4312 31.0791 66.2806 31.4375 66.6282 31.3329C66.7272 31.1999 66.576 31.1025 66.5668 30.9702L67.6416 31.4488C67.6183 31.629 67.4466 31.716 67.4967 31.9429L67.0742 31.9995C66.807 32.2879 67.2064 32.3423 67.3562 32.437L67.07 32.4532C67.0488 32.4829 67.0452 32.5218 67.0664 32.5388L66.8601 32.5148C67.3194 32.9346 66.1464 33.0392 66.6714 33.3708C66.5921 33.3343 66.5224 33.2798 66.4679 33.2115C66.4134 33.1433 66.3756 33.0632 66.3576 32.9777C66.1004 32.8802 66.1125 33.0817 65.9796 33.1947L66.3237 33.4768C65.7061 33.3468 66.3088 33.7928 65.7895 33.9829C65.3054 33.7433 64.7655 34.6354 64.4793 34.6517C63.9395 34.5697 64.7782 34.3201 64.4779 34.1298C64.1861 34.0769 64.2779 34.33 64.0674 34.3908L64.0356 33.9829C63.7077 33.9079 63.9225 34.3661 63.7671 34.2034C63.4279 34.4452 63.8143 34.3625 63.8023 34.6785C63.76 34.5865 63.4949 34.4205 63.3296 34.5774C63.3028 34.6919 63.6638 34.7208 63.418 34.7604C62.6109 34.5187 62.2873 34.9612 61.5326 34.8778L61.5489 35.0807C61.4725 35.034 61.4295 34.9428 61.3319 35.005L61.3404 35.138C60.9084 34.9841 60.4547 34.8996 59.9963 34.8877L60.1955 35.1393L59.8126 34.8396L59.7723 35.2009C59.7087 34.8403 59.1144 35.0531 58.7123 34.9337L58.6572 35.1613L58.4311 35.0213L58.479 35.1811C58.2254 35.1521 58.0155 34.7668 57.6749 34.9422C57.8862 34.8778 57.8424 35.2383 57.7845 35.3952ZM47.2673 34.5364L47.1563 34.5215C47.1705 34.5369 47.1896 34.547 47.2103 34.5499C47.2311 34.5529 47.2522 34.5486 47.2702 34.5378L47.4489 34.5654C47.4764 34.3526 47.3726 34.4932 47.2673 34.5364ZM30.3959 33.7992L30.6898 33.8358C30.6219 33.8598 30.4277 33.7532 30.4813 33.9101C30.4439 33.8867 30.3336 33.8896 30.3959 33.7992ZM48.2016 32.3367L48.1096 32.1542L47.9527 32.379L48.2016 32.3367ZM50.619 32.3585L50.3914 32.2228L50.3589 32.2681L50.5892 32.4037L50.619 32.3585ZM53.476 34.4487C53.4081 34.0515 53.2287 34.4544 53.069 34.2904C53.0583 34.2727 53.0435 34.2579 53.0258 34.2473C53.0381 34.2636 53.0526 34.2781 53.069 34.2904C53.1452 34.4261 53.1898 34.7774 53.4731 34.4459L53.476 34.4487ZM47.9768 34.115C47.9273 34.3399 48.2177 34.3844 48.27 34.5427C48.4106 34.4967 48.2813 34.2954 48.2679 34.1603C48.3372 34.1377 48.3761 34.1596 48.4538 34.2048C48.5146 33.7285 48.181 34.3604 47.9768 34.115ZM42.1715 33.7907L42.3723 33.9688L42.3009 33.9921L42.1715 33.7907ZM40.9272 33.9596C40.8651 33.9647 40.8027 33.9531 40.7465 33.926C40.6904 33.8989 40.6425 33.8573 40.6078 33.8055C40.5731 33.7536 40.553 33.6935 40.5493 33.6312C40.5457 33.569 40.5588 33.5069 40.5872 33.4514C40.8085 33.5129 41.1667 33.4655 41.2338 33.756C41.1399 33.5757 41.2042 34.1801 40.9307 33.9631L40.9272 33.9596ZM51.0768 33.7794C50.9242 33.6889 50.8048 33.1693 50.3971 33.4386L50.6246 33.5743L50.5554 33.5969L50.5738 33.7992C50.6317 33.259 50.9305 33.756 51.0768 33.7794ZM38.6786 33.5651C38.6188 33.5542 38.5622 33.5302 38.5126 33.495C38.4631 33.4598 38.4218 33.4141 38.3918 33.3612C38.3619 33.3083 38.3438 33.2495 38.339 33.1888C38.3343 33.1282 38.3428 33.0673 38.3641 33.0103C38.2779 33.2139 38.663 33.4294 38.8623 33.6075C38.7867 33.563 38.7464 33.5425 38.6786 33.5651ZM38.8899 33.1813C39.0291 33.1353 39.0411 32.8887 39.239 33.064C39.152 33.2669 39.1336 33.7603 39.5153 33.5976C39.3315 33.2399 39.3464 33.0598 39.0396 32.8859L38.8899 33.1813ZM39.3089 33.91L39.7824 33.7518C39.6488 33.3199 39.5124 33.7517 39.3089 33.91L39.1548 33.9624C39.1828 33.9652 39.211 33.962 39.2377 33.9531C39.2644 33.9442 39.2889 33.9298 39.3096 33.9108L39.3089 33.91ZM36.1339 33.8344L36.2279 33.9454C36.1996 34.0062 36.2039 34.0628 36.3409 34.077L36.2279 33.9454C36.2892 33.8302 36.4788 33.6973 36.1374 33.8365L36.1339 33.8344ZM38.8942 33.8797L38.4913 33.8401C38.6313 33.7907 38.9091 33.6966 38.8942 33.8797ZM36.9769 33.5552C36.7841 33.5588 36.5918 33.5772 36.4018 33.6104C36.4851 33.7178 36.8887 33.7554 36.9748 33.5531L36.9769 33.5552ZM27.4823 33.469L27.6667 33.1955L27.4102 33.1806L27.4823 33.469ZM30.2651 33.0392L30.4121 33.0576L30.506 32.9212L30.2651 33.0392ZM33.4381 32.7777C33.4132 32.7829 33.39 32.7944 33.3708 32.8111C33.3516 32.8279 33.337 32.8492 33.3284 32.8732C32.983 33.0561 32.5921 33.1353 32.2027 33.1014C32.0402 33.264 32.3582 33.5002 32.443 33.609C32.4812 32.6914 32.8479 33.6422 33.1751 33.322C33.1257 33.23 32.9519 33.2626 32.9335 33.1269C32.9833 33.0841 33.0442 33.0561 33.1091 33.0461C33.1741 33.0361 33.2405 33.0445 33.3009 33.0703C33.3094 33.1353 33.3349 33.1863 33.3737 33.1842C33.3719 33.1607 33.3643 33.138 33.3516 33.1181C33.3389 33.0982 33.3215 33.0818 33.3009 33.0703C33.2914 33.0039 33.3004 32.9361 33.327 32.8746C33.3701 32.85 33.408 32.8171 33.4381 32.7777ZM37.319 32.7324C37.355 32.8138 37.189 32.9191 37.3853 33.0293C37.4097 32.9797 37.4165 32.9232 37.4044 32.8692C37.3923 32.8152 37.3622 32.767 37.319 32.7324C37.3048 32.7014 37.2631 32.6766 37.1635 32.6518C37.222 32.6632 37.276 32.6912 37.319 32.7324ZM37.2285 32.2476L37.6681 32.6208L37.538 32.4214L37.8496 32.5918C37.8494 32.5194 37.8298 32.4484 37.7929 32.3861C37.7561 32.3238 37.7033 32.2725 37.64 32.2375C37.5767 32.2024 37.5052 32.1848 37.4329 32.1866C37.3606 32.1884 37.29 32.2094 37.2285 32.2476ZM38.5606 32.4915L38.003 32.3677L38.0086 32.4172L37.9719 32.4129L38.0305 32.637L38.0086 32.4172L38.5606 32.4915ZM43.2436 32.9473L43.5284 32.9212C43.3823 32.7987 43.1951 32.7363 43.0048 32.7466C43.4464 32.1139 43.0888 32.859 43.6414 32.606C43.0697 32.6123 43.3813 32.2186 43.4655 31.9648C43.4945 32.3317 44.2817 32.1153 43.8866 32.8725C43.7277 32.7205 43.2931 33.4181 43.2436 32.9473ZM46.9423 32.7438L47.2737 32.8095L46.9119 32.7883L46.9423 32.7438ZM56.5796 32.6039C56.5507 32.2638 56.0016 32.5741 55.9832 32.7537C56.0772 32.6201 56.3309 32.6463 56.5796 32.6039ZM60.0358 32.7218C59.8282 32.7883 59.6451 32.3535 59.4649 32.7572L59.8359 32.9219C59.9348 32.7876 60.0549 32.9288 60.0358 32.7218ZM62.5756 32.6808L62.6102 33.0887L62.4972 33.018L62.5756 32.6808ZM62.2548 32.2186C62.3268 32.1974 62.5848 32.2942 62.4562 32.4723L62.2548 32.2186ZM64.8292 32.5939L64.7683 32.2306L64.9457 32.2129L64.8292 32.5939ZM64.5973 32.8371C64.5557 32.7954 64.5557 32.7119 64.5656 32.6202C64.4991 32.5212 64.3578 32.4829 64.184 32.5777C64.162 32.7579 64.2949 32.6476 64.3719 32.695C64.3019 32.7155 64.1663 32.8258 64.054 32.7558C64.2808 32.444 64.1734 32.4426 64.2589 32.1719C64.6977 32.0157 64.5896 32.3613 64.5642 32.6187C64.5843 32.6513 64.5974 32.6878 64.6025 32.7258C64.6076 32.7638 64.6047 32.8024 64.5938 32.8392L64.5973 32.8371ZM63.1706 32.9227C63.2206 32.8797 63.26 32.8257 63.2858 32.765C63.5628 32.6702 63.8434 32.5819 63.6553 32.2539L63.4109 32.2921C63.5183 32.2935 63.485 32.3381 63.4907 32.4059C63.2865 32.5367 63.2321 32.3098 63.1212 32.2398C63.1594 32.3697 63.3897 32.5367 63.2879 32.7614C63.2144 32.7865 63.1424 32.816 63.0724 32.8498C63.0427 32.8046 63.0018 32.7791 62.9205 32.8901L62.9268 32.9586C62.9663 32.9116 63.0162 32.8744 63.0724 32.8498C63.0971 32.8944 63.1204 32.9515 63.1706 32.9227ZM64.7253 33.1163C64.731 33.1842 64.6659 33.2732 64.7083 33.3651L64.8192 33.4365C65.0242 33.3035 64.868 33.1403 64.7232 33.1142L64.7253 33.1163ZM57.4297 32.8661C57.3923 32.8427 57.0001 32.8604 57.0545 32.6322L56.8687 32.9678C57.0764 32.9014 57.2092 33.1757 57.1061 33.2421C57.3004 33.0421 57.4177 33.1792 57.4269 32.8633L57.4297 32.8661ZM47.5245 32.7664C47.6064 32.8795 48.1598 32.6315 48.128 33.059C48.4064 32.584 47.8008 32.6737 47.5231 32.7636L47.5245 32.7664ZM47.3549 33.2385C47.3156 33.227 47.275 33.2201 47.2341 33.2181C47.1041 33.1262 47.2009 32.7848 46.8949 32.9706C46.9394 33.0604 47.0737 32.9473 47.114 33.0343C47.0475 33.2505 47.097 33.2083 47.2313 33.2153C47.2486 33.2278 47.2685 33.2363 47.2896 33.24C47.3106 33.2436 47.3323 33.2424 47.3528 33.2364L47.3549 33.2385ZM52.8619 33.6294L52.5764 33.6507L52.4712 33.3318L52.8619 33.6294ZM55.4455 34.0353L55.225 33.9659L55.3274 33.8988C55.3479 33.816 55.4228 33.6959 55.3719 33.6394C55.3347 33.6344 55.2988 33.6223 55.266 33.604C55.2851 33.6022 55.3044 33.6044 55.3227 33.6105C55.3409 33.6166 55.3577 33.6264 55.3719 33.6394C55.5394 33.6655 55.7585 33.6444 55.721 33.8811C55.6737 33.7872 55.3557 33.7872 55.3338 33.9674L55.4455 34.0353ZM60.8825 34.342C60.7701 34.272 60.7645 34.2041 60.5277 34.3816C60.5829 34.4156 60.648 34.4301 60.7124 34.4228C60.7769 34.4155 60.8363 34.3875 60.8825 34.342ZM54.0279 34.2713C54.0476 34.0904 53.7304 34.1561 53.8886 33.9313L54.0286 33.8875C53.8166 33.9582 54.0236 33.4372 53.6888 33.6818L53.8633 33.6613C53.6237 33.7723 54.0414 34.0232 53.6908 34.1334C53.553 34.1794 53.8597 34.359 54.0336 34.2699L54.0279 34.2713ZM61.1736 34.8439C60.992 34.7951 61.1679 34.3236 60.7913 34.5434C61.0131 34.6142 60.8683 35.0418 61.1736 34.8439ZM55.7803 35.0078L55.7486 35.0524L55.5232 34.9132L55.5542 34.8693L55.7803 35.0078Z" fill="white"/>
<path d="M59.7321 32.4066C59.7687 32.3907 59.808 32.3823 59.8478 32.3818C59.8877 32.3813 59.9272 32.3887 59.9641 32.4037C59.8877 32.4194 59.8089 32.4204 59.7321 32.4066Z" fill="white"/>
<path d="M46.6191 31.5571C46.6083 31.5898 46.5909 31.62 46.5681 31.6458C46.5452 31.6716 46.5173 31.6925 46.4861 31.7071C46.5135 31.6443 46.5601 31.5918 46.6191 31.5571Z" fill="white"/>
<path d="M46.0117 31.4198L45.9806 31.4184L45.9615 31.3909L46.0117 31.4198Z" fill="white"/>
<path d="M24.4555 32.1098C24.3622 31.7322 24.6422 32.0405 24.7871 32.0327C24.6421 32.0405 24.5255 32.3128 24.4555 32.1098Z" fill="white"/>
<path d="M25.4434 32.7054C25.4122 32.6492 25.3684 32.6009 25.3156 32.5642C25.2628 32.5276 25.2022 32.5035 25.1387 32.4939C25.2348 32.4784 25.3275 32.5144 25.4434 32.7054Z" fill="white"/>
<path d="M24.5557 32.5763C24.7388 32.4962 24.9404 32.4679 25.1384 32.4943C24.9892 32.5162 24.8329 32.6696 24.5557 32.5763Z" fill="white"/>
<path d="M28.5165 32.4862C28.3928 32.2563 28.0215 32.3942 28.0215 32.3942C28.8185 32.1446 27.9735 31.953 27.953 31.7769C28.3978 31.8427 28.3326 32.1411 28.5165 32.4862Z" fill="white"/>
<path d="M29.4756 32.5725C29.4002 32.5736 29.326 32.5917 29.2586 32.6255C29.288 32.6002 29.323 32.5822 29.3607 32.5729C29.3984 32.5637 29.4378 32.5636 29.4756 32.5725Z" fill="white"/>
<path d="M29.804 32.3335C30.0494 32.3809 30.0784 32.6461 30.1484 32.849C29.792 33.0512 29.6916 32.6312 29.4738 32.5732C29.6576 32.5619 29.8302 32.5846 29.804 32.3335Z" fill="white"/>
<path d="M34.0468 31.5431C33.9938 31.5155 33.8509 31.5211 33.8828 31.372L34.3155 31.355C34.4682 31.4384 34.1408 31.5099 34.0468 31.5431Z" fill="white"/>
<path d="M35.0818 32.0616C35.4198 32.0786 35.3328 31.696 35.4863 31.7802L35.3455 32.2886L35.0818 32.0616Z" fill="white"/>
<path d="M34.5574 34.0204L34.4662 33.9702L34.5779 33.9857L34.5574 34.0204Z" fill="white"/>
<path d="M36.5061 31.7345L36.4036 31.1738C36.6581 31.3124 36.5542 31.7628 36.5061 31.7345Z" fill="white"/>
<path d="M37.5308 31.4022L37.371 31.231L37.9629 31.3887L37.5308 31.4022Z" fill="white"/>
<path d="M38.6619 31.5829L38.7474 31.4619L39.1455 31.5984L38.6619 31.5829Z" fill="white"/>
<path d="M51.7939 32.0356C51.7359 32.5136 51.1009 32.3128 50.8697 32.4351C51.1603 31.8348 51.3661 32.6374 51.7939 32.0356Z" fill="white"/>
<path d="M59.0781 32.6135L58.4537 32.4926C59.0102 32.3137 58.5952 32.4925 59.0781 32.6135Z" fill="white"/>
</mask>
<g mask="url(#mask0_5_497)">
<path d="M67.2175 31.1085C66.418 32.9078 62.6205 33.8075 61.1214 33.9075C60.4219 34.0075 59.5224 33.5076 58.8229 33.6076C58.4231 33.7076 58.2233 34.4073 57.7236 34.3074C57.3238 34.3074 57.024 34.2074 56.6243 34.1074C55.0253 33.7076 53.2264 33.5076 51.5275 33.7076C50.6281 33.8075 49.8286 33.3077 49.0291 33.1078C48.4295 33.0078 47.63 33.3077 46.9304 33.2077C45.8311 33.0078 44.7318 33.3077 43.7325 33.2077C42.0335 33.1078 40.4346 33.1078 38.7356 33.0078C37.4365 32.9078 36.1373 33.2077 34.9381 33.3077C33.7388 33.4077 32.5396 33.4077 31.3404 33.4077C28.9419 33.4077 26.5434 33.3077 24.1449 33.3077" stroke="#202020" stroke-width="3.99865" stroke-miterlimit="10" stroke-linejoin="round" stroke-dasharray="41.99 41.99"/>
</g>
<mask id="mask1_5_497" style="mask-type:luminance" maskUnits="userSpaceOnUse" x="17" y="22" width="30" height="18">
<path d="M44.4225 38.9453C44.4476 38.9723 44.4755 38.9965 44.5059 39.0174C44.4027 39.0146 44.3568 38.9997 44.4225 38.9453Z" fill="white"/>
<path d="M45.6859 39.4783C45.2594 39.4291 44.8528 39.2705 44.5057 39.0179C44.8394 39.0264 45.8012 38.8921 45.6859 39.4783Z" fill="white"/>
<path d="M44.7217 38.02L45.0908 38.2816C44.7755 38.3792 44.9302 38.1211 44.7217 38.02Z" fill="white"/>
<path d="M44.6729 38.5811L44.5683 38.7834L44.4155 38.5316L44.6729 38.5811Z" fill="white"/>
<path d="M21.7994 35.1338C21.8078 35.2482 21.778 35.3621 21.7145 35.4576L21.7994 35.1338Z" fill="white"/>
<path d="M21.2224 33.9236C21.167 33.8794 21.107 33.8412 21.0435 33.8098C21.1107 33.8118 21.1467 33.848 21.2224 33.9236Z" fill="white"/>
<path d="M22.7314 35.3018L22.5433 35.282C22.6064 35.2658 22.6732 35.2728 22.7314 35.3018Z" fill="white"/>
<path d="M34.0898 37.426C34.193 37.6155 34.2928 37.7888 34.3748 37.9118C33.9873 37.991 34.0997 37.6452 34.0898 37.426Z" fill="white"/>
<path d="M19.1577 34.3068L19.2257 34.1328C19.2695 34.1978 19.2864 34.2658 19.1577 34.3068Z" fill="white"/>
<path d="M22.1934 31.1201C22.1661 31.1962 22.1259 31.267 22.0746 31.3294C22.0646 31.311 22.0512 31.2962 22.0399 31.2736L22.1934 31.1201Z" fill="white"/>
<path d="M23.5735 35.1627L23.5898 35.1464L23.6895 35.29C23.6005 35.2984 23.5608 35.2588 23.5735 35.1627Z" fill="white"/>
<path d="M20.6994 34.2501C20.7694 34.3494 20.8207 34.4605 20.8508 34.5781C20.8192 34.5667 20.7902 34.5491 20.7655 34.5264C20.7407 34.5036 20.7207 34.4762 20.7066 34.4457C20.6926 34.4152 20.6847 34.3822 20.6834 34.3486C20.6822 34.3151 20.6876 34.2816 20.6994 34.2501Z" fill="white"/>
<path d="M21.0156 33.8007L21.0199 33.7964L21.0439 33.8106C21.0326 33.8106 21.0291 33.8043 21.0156 33.8007Z" fill="white"/>
<path d="M23.5293 31.7042C23.4671 31.6547 23.4063 31.6151 23.3419 31.555C23.3641 31.5517 23.3868 31.553 23.4085 31.5589C23.4301 31.5647 23.4504 31.5749 23.468 31.5889C23.4855 31.6029 23.5 31.6204 23.5106 31.6402C23.5211 31.66 23.5275 31.6818 23.5293 31.7042Z" fill="white"/>
<path d="M34.0889 37.4261C34.0605 37.3723 34.0315 37.3188 34.0019 37.2656C34.0663 37.2861 34.0861 37.3469 34.0889 37.4261Z" fill="white"/>
<path d="M43.1045 39.0647C42.9637 39.0357 42.9785 38.9091 42.997 38.7861C43.059 38.8666 43.0964 38.9634 43.1045 39.0647Z" fill="white"/>
<path d="M46.333 24.474L46.3945 24.4507C46.3864 24.4586 46.3768 24.4647 46.3662 24.4687C46.3556 24.4727 46.3443 24.4745 46.333 24.474Z" fill="white"/>
<path d="M40.4618 26.2625C40.4304 26.2326 40.4052 26.1968 40.3876 26.1571C40.4421 26.1027 40.4632 26.1677 40.4618 26.2625Z" fill="white"/>
<path d="M34.8723 32.1535L33.8709 31.8588C33.825 32.0702 33.3565 32.232 33.6541 32.3952L33.2802 32.1302L33.2865 32.36C31.5948 33.1234 30.4062 31.6559 28.684 32.9756L28.7017 33.0583L27.8276 32.6829C27.6495 32.7749 27.5499 33.1998 27.251 33.4012C27.4382 32.9311 26.7168 33.4492 26.5867 33.1C26.3443 33.3213 26.557 33.3941 26.5959 33.5588C25.6419 34.1511 25.013 33.5545 23.9905 34.0444C24.5217 33.6283 25.1091 33.2897 25.7352 33.0385C24.9713 32.929 24.7818 33.3997 23.9432 33.4174L24.3183 33.5454C23.7969 34.2819 23.0584 33.416 22.8344 34.1815C22.3377 34.1652 21.9892 33.5128 21.3525 33.7539L21.5398 34.3498L20.9723 34.4621L21.0183 34.0203C20.948 34.0187 20.8791 34.0397 20.8216 34.0801C20.764 34.1206 20.721 34.1785 20.6988 34.2452C20.3723 33.8112 19.7972 34.1914 19.3124 33.8973L19.2241 34.1272C19.1899 34.0864 19.1603 34.0421 19.1357 33.9949C18.9831 34.3993 18.5747 34.3371 18.5089 34.6955C18.67 34.7505 19.0418 34.8792 19.0389 34.6488C19.4184 35.0057 18.4771 34.9902 18.1937 35.046C18.5265 34.7781 18.1366 34.7979 17.9754 34.7428C17.9408 34.8071 17.9944 34.8255 18.0114 34.9089C17.9542 34.9465 17.8887 34.9698 17.8206 34.9768L19.3633 29.5261C19.6877 29.6711 19.5096 30.474 20.0777 29.8887L19.9802 30.3227L20.4791 30.1333C20.1491 30.9582 20.9625 30.3652 20.6861 31.1392C21.0974 31.282 20.836 30.6571 20.949 30.7858C21.4127 30.7377 21.7751 31.6785 22.0775 31.3322C22.2931 31.7104 22.7431 31.6347 22.9588 31.8786L23.1333 31.5343C23.2463 31.6616 23.3452 31.8877 23.5198 31.8644C23.5408 31.8151 23.546 31.7605 23.5346 31.7082C23.9509 32.0156 24.4234 32.2384 24.9253 32.3642C24.9996 32.1232 25.0617 31.9761 24.8244 31.8177C25.4094 31.6114 25.8016 32.5918 26.5302 32.6449L26.5563 32.4561L26.8057 32.847C26.7797 32.7105 26.8807 32.6067 26.9408 32.4603C27.6156 32.5699 28.4085 32.7975 28.4452 33.5821C28.3407 33.3616 28.9201 33.2485 28.6629 32.8583C29.1166 33.5058 30.0006 33.6181 30.6719 33.9334L30.6479 33.9574L30.8782 34.2077L30.9292 34.1567L30.7666 33.9801C31.0354 34.1003 31.2589 34.3031 31.4047 34.559C31.5425 34.359 31.7236 34.1928 31.9347 34.0727C31.7552 34.5137 32.9494 33.8959 33.1014 34.4763C33.1982 34.3696 32.9841 34.3519 33.1699 34.2338C34.0413 34.5399 35.1626 35.4016 36.3873 35.3217C36.1245 36.1898 37.1181 36.194 37.542 36.7313C37.8954 36.2632 37.3152 36.3926 37.3159 35.9777C37.5993 36.1679 37.636 35.3747 38.06 35.9161C38.0713 35.8215 38.1179 35.7678 37.9929 35.7402C38.3327 35.7819 37.6713 36.3446 38.2388 36.3057L38.4027 35.9565L38.5201 36.498C39.6444 36.5184 40.4231 36.9978 41.4831 36.8379C41.4825 36.909 41.4608 36.9782 41.4208 37.0369C41.3808 37.0955 41.3242 37.1409 41.2582 37.1673C41.6753 37.2451 41.9226 37.9435 42.5352 37.6925L42.466 37.5186C43.3451 37.3787 43.0624 38.1153 43.9041 38.444C43.6885 38.432 43.3274 38.0735 43.119 38.4772C43.0914 38.7578 43.5649 38.8201 43.8002 38.644L43.5394 39.1028C43.5246 38.7797 43.1804 38.7437 42.9811 38.5444C43.0341 38.5973 43.0144 38.6991 42.9995 38.7988C42.7693 38.6179 42.5197 38.4631 42.2554 38.3372L42.7289 38.3867C42.7289 37.8778 41.9586 38.2298 41.8485 38.0163C41.6753 38.4595 41.9799 38.4574 41.5601 38.7529C40.7333 38.7429 41.305 38.1909 40.7503 37.6318L40.9346 37.5108C40.7269 37.4034 40.734 36.893 40.2747 37.1489C40.1609 37.4438 40.416 37.4982 40.4845 37.6714C40.3411 37.8318 40.2825 37.0536 39.9107 37.2953C39.964 37.5102 40.0803 37.7042 40.2448 37.8524C40.4093 38.0006 40.6144 38.0961 40.8336 38.1266C40.73 38.2518 40.6702 38.4074 40.6633 38.5697C39.6691 37.9809 38.6635 37.1602 37.4488 37.1511C37.8141 37.8375 37.1922 37.0966 37.0884 37.7123C37.1738 37.2847 36.6665 37.5887 36.4283 37.3434C36.1259 37.7562 36.9018 37.8325 36.5323 38.0707C35.9902 37.8212 35.5274 36.8251 34.7048 36.7983C34.685 36.9864 34.8517 37.0557 34.8426 37.1496C34.3939 36.8917 34.1678 35.7141 33.5403 36.3078C33.671 36.6181 33.8385 36.9596 33.9975 37.2642C33.9345 37.2452 33.83 37.2663 33.6441 37.359L33.6922 37.7236C33.0435 37.6742 33.5141 36.9122 33.3509 36.4266L32.7926 36.7786C32.6253 36.8091 32.4536 36.8057 32.2876 36.7686C32.1216 36.7315 31.9647 36.6615 31.8263 36.5626C31.6879 36.4637 31.5707 36.338 31.4818 36.193C31.3929 36.048 31.334 35.8865 31.3086 35.7183C31.1807 35.6893 30.6755 35.5684 30.708 36.0279C30.8104 36.6647 30.8069 37.084 31.4818 37.2755C31.7383 36.9157 31.1532 36.7136 31.3651 36.7347C31.609 36.8896 32.2365 36.7114 32.3212 37.1185L31.6082 36.8888C31.3693 37.4784 31.9022 36.9892 31.91 37.3123C31.5142 37.7349 31.3228 37.1122 30.9114 37.3031L30.951 37.3427C30.4146 37.0889 30.4436 37.2225 29.9702 36.8195C30.1603 36.2845 30.3051 36.5439 30.6684 36.404C29.7377 36.1516 28.8961 34.8177 27.5627 35.49L27.9244 36.0965C27.5337 36.0972 27.1344 35.4475 26.8786 36.129C27.369 36.023 27.0206 36.3899 27.1747 36.558L27.2256 36.507C27.2658 36.5474 27.3782 36.674 27.2446 36.7383C27.0357 36.3518 26.7528 36.0103 26.4121 35.7331C26.497 35.9197 26.0949 36.0505 26.0079 36.1375C25.7274 35.9374 26.1303 35.8441 26.2412 35.6454C26.0758 35.5705 25.9564 35.1188 25.6582 35.4327C25.2864 35.6631 25.825 35.8314 25.7931 36.1148L25.0201 35.3754L25.0095 35.4694C24.9819 35.333 24.8675 35.2072 24.7297 35.2687C24.5304 35.4779 24.7325 35.5953 24.9084 35.5734C24.2371 35.7897 24.3431 34.5456 23.5898 35.1492L23.3962 34.8594C23.3445 34.911 23.2421 35.0136 23.2824 35.058L23.105 34.7519C22.6747 34.3809 22.7446 35.21 22.5157 35.2808L22.5439 35.285C22.3468 35.321 22.1334 35.4977 22.2175 35.5932L21.7998 35.1231L21.797 35.1344C21.7701 34.6439 21.0034 34.3109 21.356 33.5383C21.1829 33.5559 21.0048 33.6648 21.0182 33.797C20.631 33.6316 20.8493 34.4268 20.2417 34.1187C20.1788 34.2649 20.2664 34.255 20.3426 34.3413C20.1654 34.3053 20.1158 34.2345 20.1229 34.144C20.0754 34.247 20.0135 34.3427 19.9392 34.4283C20.0642 34.1364 19.7625 34.1201 19.588 34.1378L19.6021 34.6976C19.6042 34.643 19.5941 34.5886 19.5727 34.5384C19.5512 34.4882 19.5188 34.4434 19.4779 34.4072C19.437 34.371 19.3886 34.3443 19.3361 34.3292C19.2837 34.314 19.2285 34.3106 19.1746 34.3194L19.2121 34.6891C18.8113 34.4494 19.4756 34.0112 18.8135 34.1223L19.4389 33.9673C18.9132 33.6917 19.3774 33.1311 19.253 32.7707C19.0121 32.3543 18.4785 32.4638 18.109 32.3261L18.1647 32.1387C18.2966 32.1114 18.434 32.1337 18.5505 32.2014C18.6669 32.2691 18.7543 32.3774 18.7958 32.5056C18.9153 32.1655 18.8438 32.0645 19.0715 31.7592C18.897 31.7686 18.7247 31.7175 18.5835 31.6146C18.4423 31.5117 18.3408 31.3633 18.2963 31.1943L18.2786 31.1767L17.687 33.2711C18.1909 33.9164 18.3973 32.1182 18.8637 33.0908C18.6396 33.486 18.388 33.4167 18.2511 33.1509C18.1958 33.2942 18.1757 33.4487 18.1925 33.6013C18.2093 33.754 18.2626 33.9004 18.3478 34.0282C18.0704 33.8649 17.7451 33.8027 17.427 33.8521L18.3514 30.5935C18.5445 30.4856 18.753 30.4081 18.9696 30.3637C19.1067 30.5235 19.4883 30.7073 19.6855 30.5695C19.6275 30.8437 20.4254 30.8925 20.1003 31.4961C20.6508 31.5321 20.5504 30.6584 21.0204 31.1992C20.8713 30.7674 21.4197 30.7999 21.243 30.4323C21.0013 30.8833 20.477 30.3234 20.2254 30.0845L21.0741 29.688C20.8599 29.8456 21.1137 30.0838 21.2218 30.1185L21.3801 29.7114C21.3921 30.6295 22.8965 28.7769 23.1763 29.789C22.9284 29.7799 22.6662 30.1482 22.604 29.6718C22.0952 30.0308 22.6195 30.363 22.3546 30.7284C23.0513 30.966 24.2477 30.1538 24.9663 30.703C24.8561 30.4373 24.4851 30.5398 24.4964 30.1623C25.1147 29.8393 25.7281 30.5829 26.3719 30.8013L26.2992 30.3354C26.8198 30.6627 26.5479 30.1135 27.1506 30.1665C27.1181 30.2315 27.0121 30.4252 27.1556 30.3963C27.6679 30.267 27.2565 29.9729 27.6064 29.7883C28.1513 30.4295 27.9718 29.2264 28.7229 29.483L28.6855 29.3169C29.2749 29.5176 30.1695 28.6807 30.8557 28.4566C30.7885 28.586 30.2924 28.5675 30.2974 29.0292L31.1319 29.0072C31.199 28.8779 31.5701 28.7755 31.3715 28.5555C31.2655 28.5203 31.1404 28.6298 31.0542 28.6765L31.1941 28.4178C31.9552 28.5245 31.0634 29.1352 31.0168 29.5764C31.457 29.3438 31.5531 29.7579 31.8379 29.6994C32.0238 29.2306 31.3482 29.3085 31.7651 28.7641C32.0429 28.4764 32.8265 28.6637 33.0661 29.042C33.589 27.9279 34.726 28.5125 34.8192 27.7123C34.7875 27.7766 34.902 28.041 35.1083 27.877L35.0129 27.6995C35.6291 27.2118 35.5182 28.2997 35.8991 28.0388C35.9054 27.8912 35.7973 27.8579 35.757 27.6989C36.5541 27.3356 36.9025 28.4007 37.7215 27.7243C37.6975 27.6452 37.6763 27.5646 37.5908 27.6162C37.5661 27.5363 37.706 27.5009 37.9505 27.6367L37.6508 28.0014C38.0035 28.8292 38.7772 27.3243 39.4104 27.3977C39.3575 27.2458 38.8812 27.349 39.144 27.0465C39.5623 26.9263 39.4804 27.9187 40.0026 27.3031C39.7786 27.2571 39.8647 26.7778 39.6543 26.7468C39.9793 26.5898 40.2139 26.2575 40.322 26.5778C40.3655 26.5378 40.4002 26.4893 40.424 26.4353C40.4479 26.3813 40.4603 26.323 40.4606 26.2639C40.6612 26.4717 40.9976 26.1777 41.216 26.03L41.1622 25.8759C41.5552 26.6661 41.8286 25.7027 42.3522 25.579L42.2653 25.3506C42.4289 25.4276 42.6153 25.4406 42.788 25.3869C42.9606 25.3333 43.1069 25.217 43.1981 25.0608L42.9938 24.8226C43.3048 24.9358 43.8483 24.2338 44.1238 24.6042C44.2256 24.4769 43.8171 24.156 44.2984 23.9305C44.344 23.9762 44.4007 24.0094 44.4629 24.0267C44.5252 24.0441 44.5908 24.0451 44.6535 24.0296C44.7162 24.0141 44.7738 23.9826 44.8208 23.9383C44.8678 23.8939 44.9025 23.8382 44.9216 23.7765C44.9096 23.6386 44.8411 23.4966 44.7217 23.6938C44.6425 23.756 44.697 23.7609 44.7287 23.828L44.55 23.6775C44.9025 23.2908 44.8629 23.7673 45.2453 23.4542C45.3068 23.2512 45.0891 23.2371 45.0192 23.095C45.0192 23.095 45.3958 23.0816 45.7717 23.0392L46.5371 22.9692C46.5964 23.17 46.4212 23.3679 46.5915 23.5778L46.0926 23.9016C45.8905 24.3738 46.4149 24.1801 46.6494 24.1843L46.2961 24.3823C46.2833 24.4274 46.2968 24.4706 46.3321 24.4734L46.0608 24.5794C46.8466 24.7236 45.3817 25.5966 46.2148 25.6015C46.1067 25.6204 45.9955 25.6107 45.8922 25.5734C45.789 25.5361 45.6973 25.4725 45.6262 25.3888C45.2517 25.4383 45.3626 25.6525 45.2304 25.8512L45.8078 25.9409C44.9337 26.1848 45.9337 26.2887 45.3266 26.8152C44.5789 26.8647 44.2235 28.1421 43.8334 28.3329C43.0639 28.5528 44.1075 27.7957 43.6242 27.7589C43.2101 27.8593 43.4306 28.094 43.1684 28.2742L42.9713 27.8339C42.5 27.9279 42.96 28.3258 42.69 28.2269C42.3176 28.6828 42.8152 28.3845 42.9155 28.7422C42.8023 28.6854 42.6733 28.6681 42.5491 28.6929C42.425 28.7178 42.3126 28.7834 42.2299 28.8793C42.2299 29.0207 42.7402 28.8723 42.4172 29.0426C41.228 29.1748 40.9305 29.8442 39.8641 30.0895L39.9511 30.3178C39.8316 30.2959 39.7447 30.2089 39.626 30.3305L39.6839 30.4846C39.0378 30.4955 38.3953 30.5825 37.7696 30.744L38.1094 30.9695L37.5095 30.7568L37.5463 31.2063C37.3618 30.7985 36.6114 31.2791 36.0376 31.2735L36.0156 31.5654L35.6793 31.4778L35.7824 31.6573C35.4327 31.7089 35.0652 31.3074 34.6412 31.6354C34.8991 31.4862 34.9161 31.9415 34.8723 32.1535ZM20.8168 33.973L20.6663 33.9822C20.7151 34.0197 20.7674 34.0055 20.8168 33.973L21.0564 33.961C21.0635 33.6881 20.9498 33.8924 20.8168 33.973ZM35.834 35.577L35.5033 35.437C35.5882 35.4257 35.7831 35.6307 35.7641 35.3996C35.8029 35.4426 35.9314 35.471 35.834 35.577ZM21.7073 30.9802L21.5589 30.7823L21.3872 31.104L21.7073 30.9802ZM24.8781 30.3844L24.5615 30.2769L24.5247 30.3419L24.8484 30.4508L24.8781 30.3844ZM28.9548 32.2314C28.8014 31.7557 28.6311 32.3064 28.3908 32.1409C28.3753 32.1206 28.3549 32.1045 28.3315 32.0942C28.3488 32.1126 28.3689 32.1284 28.3908 32.1409C28.5215 32.2957 28.6367 32.7219 28.9548 32.2314ZM21.6846 33.2605C21.6542 33.5554 22.0422 33.5349 22.1355 33.7187C22.3122 33.6253 22.1093 33.4098 22.0747 33.2409C22.1631 33.1949 22.2161 33.2126 22.3242 33.2486C22.3341 32.6435 21.9899 33.5179 21.6854 33.2613L21.6846 33.2605ZM22.2196 31.9098L22.0429 31.6016L22.1326 31.5924L22.2196 31.9098ZM23.7071 32.0758C23.7865 32.1009 23.8585 32.145 23.917 32.2043C23.9754 32.2635 24.0185 32.3362 24.0424 32.4159C24.0664 32.4956 24.0705 32.58 24.0544 32.6617C24.0383 32.7434 24.0025 32.8199 23.9502 32.8846C23.712 32.7255 23.2874 32.6766 23.298 32.2576C23.3459 32.5332 23.452 31.6865 23.7071 32.0758ZM25.7012 32.0378C25.4894 31.967 25.2475 31.3478 24.7522 31.7952L25.0702 31.9012L24.984 31.948L25.0399 32.196C25.0364 31.5054 25.507 32.0455 25.7012 32.0378ZM26.1804 33.3313C26.2505 33.3745 26.3112 33.4311 26.3591 33.498C26.4071 33.5649 26.4412 33.6406 26.4595 33.7209C26.4779 33.8011 26.4801 33.8841 26.466 33.9652C26.4519 34.0463 26.4218 34.1237 26.3775 34.193C26.5372 33.9413 26.1592 33.5222 25.9812 33.2168C26.0518 33.2973 26.0956 33.3412 26.1804 33.3313ZM25.8207 33.7915C25.6468 33.8113 25.5606 34.1477 25.3825 33.8424C25.5444 33.5914 25.7126 32.9227 25.2242 33.0224C25.3296 33.5716 25.2568 33.8112 25.5613 34.1484L25.8207 33.7915ZM25.5571 32.6612L24.9628 32.7269C24.9897 33.3659 25.2744 32.8139 25.5571 32.6612L25.7507 32.6386C25.719 32.6264 25.6849 32.6221 25.6511 32.626C25.6174 32.63 25.5852 32.642 25.5571 32.6612ZM29.1985 33.759L29.1229 33.5772C29.1738 33.5023 29.1865 33.4232 29.0303 33.3631L29.1229 33.5772C29.0197 33.7215 28.7561 33.8438 29.1985 33.759ZM26.0263 32.8323L26.4793 33.0125C26.3027 33.0393 25.9536 33.0803 26.0277 32.8379L26.0263 32.8323ZM28.1442 33.8904C28.3677 33.9454 28.5957 33.9804 28.8255 33.995C28.7583 33.8162 28.3032 33.6381 28.1442 33.8904ZM39.1249 36.9024L38.8331 37.2226L39.1278 37.318L39.1249 36.9024ZM35.7633 36.65L35.5973 36.5814L35.4496 36.7405L35.7633 36.65ZM32.0067 36.0492C32.039 36.0481 32.0703 36.0384 32.0976 36.0212C32.1248 36.0039 32.1469 35.9796 32.1616 35.9509C32.6091 35.8056 33.0927 35.8176 33.5325 35.9849C33.7692 35.8145 33.4675 35.3897 33.401 35.2144C33.0922 36.4606 32.9452 35.0411 32.4696 35.384C32.4993 35.5198 32.7149 35.5374 32.6944 35.7247C32.6268 35.7687 32.5467 35.7894 32.4663 35.7835C32.3859 35.7776 32.3096 35.7456 32.2492 35.6922C32.2584 35.6011 32.2428 35.5233 32.1982 35.5141C32.193 35.5457 32.1949 35.5781 32.2037 35.6089C32.2125 35.6397 32.2281 35.6681 32.2492 35.6922C32.2414 35.7844 32.211 35.8727 32.1616 35.9509C32.1049 35.9731 32.0538 36.0072 32.0103 36.0499L32.0067 36.0492ZM27.4983 34.9041C27.4806 34.7803 27.7061 34.6878 27.5053 34.4728C27.4621 34.5362 27.4384 34.6108 27.4371 34.6874C27.4359 34.7641 27.4572 34.8394 27.4983 34.9041C27.5053 34.9493 27.5443 34.9995 27.6552 35.061C27.5906 35.0252 27.5378 34.9714 27.5033 34.9061L27.4983 34.9041ZM27.4601 35.5969L27.0616 34.9479L27.1527 35.2611L26.8475 34.9274C26.8167 35.0157 26.8104 35.1108 26.8293 35.2024C26.8483 35.294 26.8917 35.3788 26.9551 35.4476C27.0184 35.5165 27.0992 35.5669 27.1889 35.5934C27.2786 35.6199 27.3738 35.6215 27.4644 35.5982L27.4601 35.5969ZM25.9946 34.8376L26.6016 35.1861L26.6108 35.1161L26.6517 35.1345L26.6538 34.8156L26.615 35.1232L25.9946 34.8376ZM20.7292 32.7106L20.3907 32.6549C20.45 32.7568 20.5294 32.8456 20.624 32.9159C20.7187 32.9863 20.8266 33.0367 20.9413 33.0641C20.2395 33.7887 20.8783 32.8839 20.1654 33.0499C20.8309 33.2324 20.3462 33.6663 20.1724 33.9873C20.2508 33.4748 19.2763 33.5151 19.9654 32.6054C20.1053 32.8711 20.8189 32.054 20.7314 32.7156L20.7292 32.7106ZM20.113 31.8115L20.5582 31.8101L20.0805 31.8751L20.113 31.8115ZM32.7311 29.0845C32.6343 28.6709 31.9694 29.2116 31.9756 29.4399C32.0768 29.2498 32.4123 29.2081 32.7311 29.0845ZM37.2842 28.1252C37.0198 28.2849 36.6905 27.8142 36.5406 28.3711L37.0657 28.4426C37.1667 28.2412 37.352 28.3641 37.2842 28.1252ZM40.5948 27.0628L40.7637 27.5216L40.5927 27.4918L40.5948 27.0628ZM40.0407 26.6641C40.1277 26.6097 40.4888 26.6146 40.3743 26.8776L40.0407 26.6641ZM43.4871 25.8704L43.2716 25.4935L43.4906 25.3818L43.4871 25.8704ZM43.2773 26.264C43.2073 26.2378 43.1762 26.1461 43.1557 26.0378C43.0342 25.9615 42.8377 25.9898 42.6484 26.1891C42.6836 26.4041 42.8144 26.2138 42.9338 26.2244C42.8511 26.2831 42.7133 26.4789 42.5423 26.4592C42.7289 25.9897 42.5869 26.0413 42.6031 25.6914C43.1048 25.29 43.0936 25.7353 43.1557 26.0393C43.1931 26.0628 43.2241 26.095 43.2463 26.1332C43.2684 26.1713 43.281 26.2142 43.283 26.2583L43.2773 26.264ZM41.4477 27.0677C41.4976 26.9964 41.531 26.9147 41.5453 26.8288C41.8766 26.5849 42.2088 26.3489 41.8591 26.0626L41.5531 26.2272C41.693 26.1764 41.6647 26.2442 41.6937 26.3199C41.471 26.5708 41.329 26.3326 41.1636 26.3001C41.2533 26.4365 41.6032 26.5206 41.5474 26.8252C41.4576 26.8938 41.3693 26.961 41.2944 27.0289C41.2407 26.9893 41.1799 26.9737 41.1078 27.1448L41.1382 27.2218C41.1763 27.1473 41.2295 27.0816 41.2944 27.0289C41.3453 27.0712 41.3934 27.1292 41.4477 27.0677ZM43.5543 26.4987C43.5875 26.5715 43.5366 26.7073 43.6284 26.7849L43.803 26.7998C44.0249 26.5354 43.7537 26.4479 43.5543 26.4987ZM33.8907 29.1544C33.8371 29.1374 33.3254 29.2746 33.3537 28.9848L33.1685 29.4526C33.4313 29.3113 33.654 29.6089 33.5318 29.7213C33.7543 29.4096 33.936 29.546 33.8907 29.1544ZM20.8812 31.6921C21.0034 31.8143 21.6931 31.3592 21.7172 31.902C22.014 31.2375 21.2331 31.5068 20.8826 31.6907L20.8812 31.6921ZM20.7299 32.3269C20.6754 32.323 20.6206 32.3255 20.5667 32.3346C20.383 32.2526 20.4572 31.8009 20.0848 32.1098C20.1568 32.2102 20.3152 32.0349 20.3872 32.1366C20.3343 32.4215 20.3914 32.3586 20.5667 32.3346C20.5931 32.3453 20.6216 32.3501 20.6501 32.3485C20.6786 32.3469 20.7063 32.339 20.7314 32.3254L20.7299 32.3269ZM28.022 31.3789L27.6509 31.4815L27.4658 31.1139L28.022 31.3789ZM31.4874 31.1825L31.185 31.1555L31.3072 31.0445C31.3199 30.9357 31.3976 30.7661 31.3221 30.7088C31.2736 30.713 31.2248 30.7087 31.1779 30.6961C31.2499 30.6819 31.2959 30.6883 31.3221 30.7088C31.5432 30.701 31.8322 30.607 31.8251 30.9123C31.7496 30.8127 31.3263 30.8996 31.3305 31.1245L31.4874 31.1825ZM38.8211 29.7404C38.6508 29.703 38.6253 29.6238 38.3497 29.9292C38.4381 29.9466 38.5296 29.938 38.6133 29.9045C38.6969 29.8711 38.7691 29.8141 38.8211 29.7404ZM29.6642 31.861C29.6607 31.6313 29.2544 31.7973 29.4226 31.4779L29.5999 31.3853C29.3349 31.5245 29.5208 30.8255 29.1202 31.2205L29.3462 31.1471C29.0487 31.35 29.6394 31.5507 29.1963 31.7818C29.0211 31.8737 29.4494 32.0194 29.6642 31.861ZM39.3616 30.2118C39.0995 30.2323 39.2048 29.6025 38.7553 30.0152C39.0741 30.0117 38.9963 30.5829 39.3616 30.2118ZM32.1093 32.2879L32.0746 32.3522L31.7488 32.2454L31.7828 32.1818L32.1093 32.2879Z" fill="white"/>
<path d="M39.4299 26.8181C39.494 26.767 39.5744 26.7408 39.6562 26.7445C39.5856 26.7818 39.509 26.8067 39.4299 26.8181Z" fill="white"/>
<path d="M19.7969 30.4062C19.7901 30.4406 19.7764 30.4731 19.7567 30.502C19.737 30.5309 19.7117 30.5556 19.6823 30.5745C19.7022 30.5079 19.7423 30.4492 19.7969 30.4062Z" fill="white"/>
<path d="M18.9978 30.3624L18.9674 30.3659L18.9448 30.3433L18.9978 30.3624Z" fill="white"/>
<path d="M42.7264 39.4031C42.7334 39.8175 42.5482 39.4314 42.4194 39.4045C42.5482 39.4314 42.7002 39.179 42.7264 39.4031Z" fill="white"/>
<path d="M41.9729 38.5513C41.9866 38.6136 42.014 38.6721 42.0531 38.7225C42.0923 38.773 42.1422 38.814 42.1992 38.8427C42.1143 38.8342 42.0344 38.7727 41.9729 38.5513Z" fill="white"/>
<path d="M42.7266 38.8951C42.5494 38.9346 42.3642 38.916 42.1984 38.8421C42.3313 38.8505 42.5017 38.7325 42.7266 38.8951Z" fill="white"/>
<path d="M39.2329 38.0453C39.2959 38.3133 39.6487 38.2603 39.6487 38.2603C38.9006 38.3267 39.6035 38.7297 39.5872 38.9185C39.2096 38.7418 39.3262 38.4483 39.2329 38.0453Z" fill="white"/>
<path d="M38.4105 37.7244C38.4765 37.7419 38.5459 37.7409 38.6113 37.7216C38.5815 37.7407 38.5468 37.7512 38.5113 37.7517C38.4758 37.7522 38.4409 37.7427 38.4105 37.7244Z" fill="white"/>
<path d="M38.0735 37.8928C37.8677 37.7846 37.8967 37.5011 37.8741 37.2748C38.2269 37.1496 38.2319 37.6114 38.4121 37.7266C38.2467 37.6913 38.1003 37.6256 38.0735 37.8928Z" fill="white"/>
<path d="M30.5528 37.4458C30.5931 37.4875 30.719 37.5172 30.6624 37.6658L30.2784 37.5745C30.1632 37.4494 30.4637 37.4571 30.5528 37.4458Z" fill="white"/>
<path d="M29.457 36.3772C29.165 36.2747 29.1614 36.694 29.0448 36.5674L29.2738 36.0738L29.457 36.3772Z" fill="white"/>
<path d="M30.6932 33.8995L30.7639 33.9702L30.6663 33.9263L30.6932 33.8995Z" fill="white"/>
<path d="M27.793 36.4894L27.7654 37.0968C27.5724 36.8896 27.7541 36.4505 27.793 36.4894Z" fill="white"/>
<path d="M26.4849 36.5538L26.5889 36.7723L26.1059 36.4576L26.4849 36.5538Z" fill="white"/>
<path d="M25.2168 35.9097L25.1192 36.0157L24.7967 35.7725L25.2168 35.9097Z" fill="white"/>
<path d="M26.5029 29.7183C26.5107 30.1787 25.8524 30.1058 25.6374 30.2671C25.8474 29.6455 26.1578 30.3632 26.5029 29.7183Z" fill="white"/>
<path d="M38.833 27.1892L38.1924 27.2557C38.705 26.9396 38.3324 27.2161 38.833 27.1892Z" fill="white"/>
</mask>
<g mask="url(#mask1_5_497)">
<path d="M45.9315 22.8113C46.0315 23.511 45.8316 24.3108 45.3319 24.8106C43.8329 26.1102 42.2339 27.3098 40.535 28.2094C40.0353 28.5093 39.4357 28.7093 38.936 28.7093C38.7361 28.7093 37.9366 29.1091 37.8367 29.1091C37.1371 29.3091 37.337 29.2091 36.7374 29.3091C36.1378 29.409 35.4382 29.3091 34.8386 29.409C34.6387 29.409 34.4389 29.509 34.239 29.509C33.7393 29.609 33.3396 29.609 32.8399 29.7089C32.7399 29.7089 32.64 29.7089 32.5401 29.8089C32.4401 29.8089 32.3402 29.9089 32.2403 30.0088C32.1403 30.0088 31.9404 30.0088 31.8405 30.0088C31.7406 30.0088 31.5407 30.1088 31.4408 30.2088C31.4408 30.2088 31.5407 30.1088 31.5407 30.0088C28.2428 30.8086 25.0448 31.0085 21.7469 31.5083C21.0474 31.6083 19.7482 31.1085 19.0486 31.2084C17.2498 34.5073 19.9481 33.2078 20.7476 32.9079C20.9474 32.8079 21.1473 33.0078 21.3472 33.2078C21.4471 33.3077 20.6476 33.0078 22.1467 33.5077C22.3466 33.5077 23.0461 33.1078 23.246 33.1078C24.0455 33.4077 23.6457 33.9075 24.4452 34.2074C24.9449 34.4073 26.2441 35.0071 26.7438 35.0071C29.442 35.307 31.8405 35.407 34.3389 36.3067C35.6381 36.8065 36.8373 36.9065 38.1365 37.3064C38.4363 37.4063 38.7361 37.5063 39.1359 37.5063C39.3357 37.5063 39.5356 37.5063 39.7355 37.5063C42.2339 37.3064 44.2326 39.3057 46.6311 39.9055" stroke="#202020" stroke-width="3.99865" stroke-miterlimit="10" stroke-linejoin="round" stroke-dasharray="61.98 61.98"/>
</g>
</g>
<defs>
<clipPath id="clip0_5_497">
<rect width="52.2656" height="44.9688" fill="white" transform="matrix(-1 0 0 1 68.125 10.0156)"/>
</clipPath>
</defs>
</svg>
