<svg width="54" height="6" viewBox="0 0 54 6" fill="none" xmlns="http://www.w3.org/2000/svg">
<g clip-path="url(#clip0_5_3163)">
<path d="M46.4147 3.71309C46.4219 3.72587 46.4261 3.74007 46.4272 3.75468C46.4223 3.74899 46.4187 3.74235 46.4166 3.73519C46.4144 3.72803 46.4138 3.72051 46.4147 3.71309Z" fill="#202020"/>
<path d="M40.3459 3.74684L40.4158 3.76946C40.3651 3.76418 40.3525 3.75662 40.3459 3.74684Z" fill="#202020"/>
<path d="M50.0547 3.756C50.0547 3.756 50.0545 3.75001 50.0461 3.74629L50.3028 3.74759L50.0547 3.756Z" fill="#202020"/>
<path d="M34.719 3.68282L34.8005 3.68605C34.7733 3.68847 34.7459 3.68739 34.719 3.68282Z" fill="#202020"/>
<path d="M40.2819 3.51112C40.2501 3.49315 40.2145 3.48239 40.1777 3.47967C40.2292 3.47693 40.2685 3.48259 40.2819 3.51112Z" fill="#202020"/>
<path d="M51.9869 3.10176L51.886 3.16215C51.887 3.13313 51.9222 3.10895 51.9869 3.10176Z" fill="#202020"/>
<path d="M53.2451 1.94852C53.2504 1.94761 53.2558 1.94742 53.2611 1.94796C53.2612 1.95096 53.2542 1.95021 53.2451 1.94852Z" fill="#202020"/>
<path d="M53.8189 2.78557C53.7995 2.81617 53.7782 2.8456 53.7551 2.87369C53.7764 2.83399 53.7899 2.78156 53.8189 2.78557Z" fill="#202020"/>
<path d="M53.7229 2.90017L53.7546 2.86104C53.7414 2.88551 53.7331 2.90581 53.7229 2.90017Z" fill="#202020"/>
<path d="M0.910568 3.90215C0.80842 3.89952 0.707943 3.87637 0.615479 3.83418L0.910568 3.90215Z" fill="#202020"/>
<path d="M26.2585 3.61533L26.2803 3.63958C26.26 3.63128 26.2567 3.62339 26.2585 3.61533Z" fill="#202020"/>
<path d="M0.760454 3.51045L0.685791 3.52598C0.709464 3.51633 0.734786 3.51107 0.760454 3.51045Z" fill="#202020"/>
<path d="M50.0636 2.99187C49.9583 2.93047 49.741 2.9908 49.7442 2.93472C49.856 2.94893 50.0153 2.91054 50.0636 2.99187Z" fill="#202020"/>
<path d="M24.4747 2.07148L24.4045 2.06886C24.428 2.06764 24.4515 2.06852 24.4747 2.07148Z" fill="#202020"/>
<path d="M0.760742 3.51247L0.846654 3.49457C0.839422 3.50555 0.831171 3.51587 0.822003 3.52539C0.802593 3.51741 0.781815 3.51303 0.760742 3.51247Z" fill="#202020"/>
<path d="M16.9639 3.75824L17.1015 3.77557C17.0549 3.78419 17.0067 3.77811 16.9639 3.75824Z" fill="#202020"/>
<path d="M0.61683 3.851L0.448486 3.81172C0.506223 3.81708 0.562894 3.83031 0.61683 3.851Z" fill="#202020"/>
<path d="M11.928 3.79068C11.9496 3.78995 11.9712 3.78922 11.9921 3.7965C11.9705 3.79847 11.9488 3.79649 11.928 3.79068Z" fill="#202020"/>
<path d="M40.6182 3.49374C40.6346 3.49318 40.656 3.48646 40.6744 3.48283C40.6811 3.4966 40.6773 3.50573 40.6182 3.49374Z" fill="#202020"/>
<path d="M37.3747 2.47212C37.2827 2.47546 37.1922 2.44819 37.1184 2.39484C37.2099 2.39472 37.2993 2.42167 37.3747 2.47212Z" fill="#202020"/>
<path d="M36.76 2.41689L36.7898 2.41084C36.7802 2.41437 36.7702 2.4164 36.76 2.41689Z" fill="#202020"/>
<path d="M40.519 2.42459C40.5194 2.42657 40.5195 2.42859 40.5193 2.43059L40.519 2.42459Z" fill="#202020"/>
<path d="M39.7815 2.39571C39.7595 2.40803 39.7353 2.41631 39.7102 2.42011C39.732 2.40732 39.7562 2.39901 39.7815 2.39571Z" fill="#202020"/>
<path d="M27.9124 1.84508C28.6161 1.87222 29.5276 1.97329 30.2245 1.95368C30.412 2.033 30.6146 2.07346 30.8192 2.07247L30.8428 1.95373L31.0276 1.99344C31.1036 1.95788 30.8856 1.97027 31.019 1.92577L31.0886 2.00037C31.1036 1.95788 31.5649 1.97724 31.2546 1.8878L31.9763 1.89734C32.1358 1.89193 32.0684 1.99417 32.2448 1.9712C32.2806 1.937 32.182 1.94634 32.196 1.90389C32.7248 1.824 32.8054 2.14413 33.2983 2.09744L33.2565 2.08087C33.3401 2.11402 33.4998 2.11261 33.5014 2.12954C33.4377 2.24865 33.4135 2.06355 33.2624 2.13164C33.2743 2.2312 33.449 2.18929 33.4393 2.26559C33.5545 2.2307 33.6226 2.28937 33.7228 2.29697C33.8948 2.23617 34.1407 2.28281 34.2698 2.20747C34.3753 2.2821 34.4981 2.33045 34.6273 2.34829C34.7575 2.27191 34.5978 2.27232 34.774 2.24337L34.8019 2.30239C34.9459 2.29751 34.9237 2.27928 34.9185 2.25146C35.0731 2.25222 35.0462 2.3341 35.2397 2.30056L35.1345 2.24115C35.2673 2.26064 35.402 2.2658 35.5359 2.25654C35.5347 2.22259 35.4513 2.22342 35.3928 2.2314C35.5021 2.14673 35.5778 2.27311 35.6362 2.26514C35.6196 2.29069 35.4808 2.29939 35.5478 2.35809C35.6506 2.34961 35.7569 2.44196 35.8287 2.37456L35.7236 2.31615C35.9314 2.36608 35.8293 2.39153 36.0698 2.37439C36.0573 2.36982 36.063 2.35563 36.0584 2.34279C36.2075 2.4207 36.4041 2.35707 36.6256 2.35656L36.5838 2.33999C36.6732 2.36195 36.7215 2.41529 36.7698 2.41165C36.6432 2.44293 36.6778 2.46075 36.6653 2.51514C36.833 2.4215 36.9189 2.6325 37.1922 2.58126C37.191 2.54732 37.1235 2.50562 37.0475 2.53918C36.9564 2.44231 36.9449 2.35274 36.7793 2.30338C36.8833 2.32884 37.0034 2.34477 36.9792 2.30261L37.0103 2.39551C37.0733 2.39937 37.1225 2.39171 37.1701 2.39609C37.1959 2.45519 37.0426 2.48937 37.1873 2.53045C37.3503 2.56391 37.2756 2.4375 37.3009 2.47962C37.5249 2.52101 37.3919 2.57649 37.6127 2.55502C37.5908 2.54677 37.549 2.53019 37.5307 2.53881C37.6861 2.50456 37.9118 2.56388 37.9594 2.45432C37.9369 2.42909 37.9326 2.39525 37.8741 2.40323L37.8747 2.4202C37.7058 2.33497 38.0168 2.44538 37.9647 2.34419C37.9514 2.40361 38.1727 2.39612 38.2692 2.38785L38.2377 2.45489C38.5617 2.66781 38.2225 2.31946 38.5432 2.35458C38.7511 2.40551 38.4655 2.3712 38.59 2.42296C38.7182 2.38809 38.852 2.37711 38.9845 2.39061C39.0412 2.3647 39.1575 2.33177 39.1682 2.25544C39.291 2.28927 39.5434 2.23074 39.6131 2.30734C39.4009 2.36551 39.4039 2.22147 39.1559 2.31483L39.2235 2.39051C39.3921 2.40842 39.5617 2.41503 39.7312 2.41029C39.707 2.42411 39.6963 2.44346 39.7114 2.45994C39.8889 2.51543 40.0735 2.54718 40.2599 2.55431C40.2925 2.48724 40.1547 2.4949 40.0513 2.48641C40.2051 2.43622 40.2111 2.48699 40.4486 2.47295C40.4619 2.41353 40.2889 2.47237 40.263 2.41327L40.5247 2.43939C40.5241 2.43542 40.5239 2.43141 40.5242 2.42741C40.5608 2.52613 40.7239 2.42065 40.8839 2.4582C41.2635 2.46934 41.3189 2.6054 41.5281 2.69227C41.5849 2.66735 41.6026 2.64276 41.579 2.61658C41.4846 2.65776 41.5018 2.61919 41.4701 2.59628C41.5984 2.61092 41.7523 2.50775 41.6817 2.46516C41.8891 2.50012 41.6073 2.51566 41.7312 2.55045L42.0105 2.55298C41.9763 2.60312 41.8776 2.61046 42.0213 2.65257C42.134 2.66518 42.2475 2.66902 42.3607 2.66406C42.3382 2.63884 42.4126 2.58834 42.2931 2.58739C42.3337 2.57542 42.3765 2.57243 42.4184 2.57861C42.4604 2.5848 42.5004 2.60002 42.5355 2.62316C42.3607 2.66406 42.8197 2.6765 42.6884 2.75092L42.8632 2.71001C42.823 2.71137 42.8197 2.6755 42.7592 2.68355C42.81 2.60786 42.9013 2.70972 42.9666 2.71951C43.0279 2.70643 43.1876 2.70502 43.201 2.67558C43.2367 2.68703 43.2747 2.69043 43.312 2.68552C43.3493 2.68062 43.385 2.66755 43.4163 2.6473C43.4974 2.66554 43.4182 2.69821 43.4448 2.7233L43.7231 2.72586C43.7391 2.68334 43.7648 2.56553 43.7239 2.54792C43.8285 2.59135 43.7584 2.67569 43.9182 2.67628C43.8285 2.59035 44.1304 2.61911 44 2.51658C44.1604 2.46753 44.3315 2.46173 44.495 2.49981C44.582 2.56883 44.3395 2.53106 44.3461 2.59881C44.7483 2.63816 44.7664 2.82546 45.0645 2.80437L44.9878 2.81996C45.0836 2.83213 45.1754 2.86525 45.2561 2.91683C45.2077 2.83151 45.4708 2.69965 45.7738 2.72937C45.798 2.77252 45.6023 2.80314 45.6501 2.87149L45.8508 2.89168C45.866 2.88617 45.8438 2.87093 45.8176 2.85882C45.9972 2.89572 46.1563 2.76239 46.2052 2.86268L46.3917 2.74742L46.3183 2.79688C46.3424 2.83904 46.5441 2.8592 46.5849 2.87681C46.6491 2.89991 46.7177 2.90933 46.786 2.90443C46.8542 2.89953 46.9206 2.88043 46.9806 2.84841C46.9437 2.88165 46.8514 2.95274 47.0141 2.97622C47.0164 2.8402 47.3559 2.93965 47.3532 2.86478C47.4183 2.86957 47.5365 2.83258 47.5416 2.88838L47.5334 2.8037C47.5449 2.92226 47.7841 2.92715 47.9665 2.95595C47.9298 2.79427 48.1672 2.97714 48.2527 2.83531C48.2835 2.94522 48.5763 2.89232 48.6054 2.98629C48.746 2.99752 48.7351 2.89593 48.772 2.8627L48.8365 2.90649C48.999 2.86664 49.1652 2.8426 49.3326 2.83471L49.4754 2.93683L49.5316 2.89594C49.5542 2.92116 49.6754 2.94104 49.5983 2.97364L49.6775 2.97096C49.6813 3.07578 49.788 3.0042 49.9444 3.05588C49.982 3.04061 49.9728 3.01493 49.9423 2.99897C50.0207 3.00131 49.9889 2.94642 50.033 2.91294C49.9762 2.93785 50.3112 3.11342 50.0962 3.15069C50.0802 3.19321 50.2021 3.22907 50.2819 3.21437L50.3322 3.1227L50.4215 3.22663C50.5427 3.24551 50.5963 3.18872 50.6949 3.18138C50.5915 3.17089 50.4819 2.98869 50.737 3.00404C50.6425 2.98454 50.5515 2.95194 50.4666 2.90725C50.5201 2.90543 50.5477 2.8975 50.4647 2.85434C50.666 2.8925 50.5308 2.91507 50.7304 2.93629C50.7222 2.85161 50.779 2.8267 50.9545 2.80576L50.8226 2.86221C50.8281 2.87242 50.8367 2.88082 50.8471 2.88636C50.7969 2.89306 50.7829 2.90653 50.7717 2.93789C50.8108 2.93657 51.0005 3.05209 51.0347 3.00195C50.8331 3.12573 51.383 3.11709 51.2477 3.19464C51.2703 3.21987 51.4098 3.23014 51.4248 3.18865C51.2594 3.11928 51.5523 3.09637 51.5223 3.03641C51.584 3.06231 51.3905 3.09485 51.4731 3.12904C51.5543 3.12879 51.6337 3.10561 51.7015 3.06233L51.6607 3.04572L51.8141 3.01154C51.8393 3.05366 51.665 3.07955 51.8061 3.10476C51.8436 3.0875 51.9846 3.11171 51.9803 3.07787C51.9133 3.01917 51.9631 2.94252 51.8429 2.9266C51.9463 2.93509 52.2558 2.94659 52.1299 3.02483L52.2482 3.02082C52.1743 3.05631 51.9653 3.11836 52.2038 3.13127L52.2031 3.1143L52.3693 3.17764L52.4408 3.13324C52.4416 3.1542 52.466 3.17437 52.5267 3.17231C52.5423 3.14679 52.6006 3.13582 52.5943 3.10205C52.7747 3.10394 52.7463 3.14588 52.7729 3.16997C52.8606 3.17399 52.8878 3.15508 52.8448 3.10656C52.935 3.09351 53.0918 3.09819 53.118 3.02334C53.2456 3.01902 53.1066 3.05171 53.2044 3.07639C53.201 2.98255 53.2682 2.93029 53.3311 2.8452C53.4033 2.76198 53.4541 2.66331 53.4794 2.55731C53.6221 2.62944 53.5012 2.50459 53.6294 2.46027C53.6098 2.48692 53.5747 2.43013 53.5428 2.40023C53.5108 2.37033 53.4837 2.36225 53.4735 2.45056C53.4756 2.41424 53.4743 2.37782 53.4696 2.34174C53.4202 2.31542 53.4187 2.36145 53.4087 2.39877C53.3988 2.43609 53.3751 2.46588 53.316 2.4269C53.3144 2.38198 53.3425 2.33405 53.352 2.28075C53.3622 2.2534 53.3621 2.22342 53.3517 2.19613C53.3413 2.16884 53.3212 2.14603 53.2951 2.13175C53.2436 2.21945 53.2517 2.04426 53.1921 2.13523C53.1812 2.17559 53.2115 2.18655 53.2239 2.21512L53.1961 2.21606C53.1208 2.15664 53.1243 2.13853 53.1498 2.10468C53.1754 2.07083 53.2228 2.04124 53.1856 1.98252C53.0502 1.91215 53.0265 1.99991 53.002 2.03472C52.9427 2.02972 52.8872 2.00473 52.8449 1.96408C52.9304 2.04914 53.0752 1.97727 53.049 1.90919C52.9196 1.97654 52.7659 1.82882 52.7174 1.77149C53.0365 1.76068 52.9171 1.8227 53.2341 1.81096C53.2481 1.85846 53.1903 1.9124 53.3335 1.96852C53.2902 1.88203 53.3785 1.93101 53.4128 1.93984C53.3455 1.95912 53.4757 2.02667 53.4788 2.08254C53.5484 2.09918 53.5349 1.92471 53.6594 2.06343L53.6054 2.10824L53.5482 2.15116C53.5943 2.20058 53.6314 2.08537 53.6602 2.22833C53.6929 2.13327 53.7886 2.21598 53.7019 2.01301C53.7525 2.04563 53.7921 2.09199 53.8157 2.14631C53.8393 2.20062 53.8458 2.26047 53.8345 2.31838C53.8069 2.41353 53.7713 2.50633 53.7281 2.59586C53.7377 2.57754 53.7562 2.57692 53.7669 2.55856C53.7364 2.60877 53.7147 2.66355 53.7027 2.72066C53.7075 2.85344 53.7852 2.6379 53.8175 2.6748L53.7956 2.78249L53.759 2.88368C53.7593 2.88967 53.7593 2.89167 53.7666 2.89242C53.7281 2.9397 53.6871 2.97607 53.7112 3.01324C53.7704 2.99385 53.8271 2.96813 53.8805 2.93654C53.8241 3.00464 53.7566 3.06332 53.6806 3.11023C53.7385 3.11427 53.6137 3.31241 53.7474 3.19093L53.7099 3.23618C53.6851 3.26201 53.648 3.29026 53.6099 3.32053C53.5605 3.35701 53.5078 3.38923 53.4526 3.41682L53.4732 3.50208C53.3781 3.5223 53.3705 3.51056 53.4635 3.46043C53.3613 3.50355 53.2492 3.51976 53.1385 3.50742C53.021 3.50641 52.9322 3.50042 52.9805 3.58474C52.6786 3.527 52.5982 3.55471 52.2678 3.50893C52.519 3.58738 51.9808 3.60761 52.247 3.64457C52.0906 3.68086 52.0585 3.58899 51.9353 3.57317C51.8201 3.60806 51.8705 3.69231 51.9953 3.72507L51.8486 3.68406L51.8492 3.70103L51.7227 3.65034C51.5872 3.69291 51.6928 3.73532 51.5539 3.74302L51.5254 3.66702L51.4301 3.70823C51.466 3.67503 51.3839 3.65682 51.2836 3.64822L51.2843 3.66519L51.162 3.64634C51.2823 3.69624 51.0501 3.65913 51.1036 3.71429C51.0047 3.7143 50.9058 3.70662 50.8081 3.69132L50.8424 3.64118C50.5972 3.58651 50.8297 3.71757 50.6296 3.71336L50.644 3.65489C50.3534 3.7417 50.1587 3.57138 49.9455 3.63157C50.0658 3.65049 50.0331 3.71757 50.0315 3.70063C49.806 3.68939 49.5824 3.65372 49.3651 3.59426C49.2939 3.67764 49.2761 3.69723 49.0805 3.73184C48.94 3.72061 48.919 3.71133 48.8718 3.65995C48.7347 3.68758 48.4801 3.62624 48.471 3.68852C48.4403 3.63758 48.3475 3.6927 48.2738 3.64822L48.2571 3.67278L48.2715 3.61432C48.0255 3.7366 47.8652 3.52113 47.6166 3.6265L47.6584 3.64408L47.5544 3.61662C47.5378 3.64217 47.5786 3.65978 47.5829 3.69361L47.1045 3.68383L47.1999 3.64362C47.0965 3.63313 47.0335 3.57329 46.9172 3.60522C47.106 3.69877 46.7584 3.6026 46.7258 3.66967L46.8298 3.69714C46.6903 3.68687 46.6903 3.68687 46.7026 3.62748C46.5213 3.59964 46.5745 3.73177 46.4093 3.6654L46.5289 3.66735C46.5648 3.63415 46.4805 3.58203 46.4011 3.58072C46.3818 3.58937 46.325 3.61328 46.3851 3.62324C46.2429 3.59507 46.0263 3.6174 45.9646 3.59151C45.8868 3.60713 45.911 3.65029 45.9519 3.6679C45.6477 3.60424 45.8129 3.67261 45.5078 3.61098L45.509 3.64492L45.4043 3.60049L45.2522 3.66662L45.3073 3.62476C45.2152 3.60455 45.1205 3.59732 45.0263 3.6033L45.0724 3.65471C44.7897 3.61631 44.7422 3.72587 44.4745 3.64598C44.4562 3.65459 44.497 3.6722 44.519 3.68046C44.2704 3.58892 44.3282 3.76188 44.0792 3.65737C44.0942 3.67485 44.0661 3.6948 44.0759 3.70946L43.9623 3.67233L43.9647 3.74021L43.8734 3.63735L43.8016 3.70475L43.7582 3.67124C43.6329 3.79643 43.4623 3.69426 43.2935 3.78694L43.3245 3.70293C42.9056 3.51721 42.3583 3.77064 41.8509 3.67288L41.8585 3.74059L41.6493 3.65472C41.5357 3.70455 41.7154 3.71445 41.6795 3.74765C41.4553 3.70327 41.5882 3.6448 41.3265 3.61768C41.192 3.65922 41.3716 3.66912 41.4323 3.69505C41.1762 3.64162 40.9138 3.62259 40.6523 3.63851C40.652 3.62953 40.6382 3.617 40.6514 3.61356C40.4657 3.59425 40.2789 3.58789 40.0922 3.59451C40.0934 3.62546 40.141 3.63185 40.1856 3.63933C40.1168 3.65294 40.0456 3.64881 39.9791 3.62734L40.0461 3.68704C39.9072 3.69174 39.6424 3.63474 39.6108 3.70178C39.6274 3.67623 39.6214 3.62546 39.505 3.6254C39.4376 3.72764 39.1806 3.57342 38.9897 3.62387C39.0123 3.64909 39.1527 3.65833 39.1126 3.65869C39.0195 3.66861 38.9257 3.64746 38.8466 3.59873L38.8718 3.64085L38.4263 3.57198C38.3588 3.67422 38.0049 3.54528 38.0344 3.62124C37.8747 3.62066 38.1689 3.5797 37.9674 3.56254C37.9132 3.60436 37.7851 3.53673 37.7927 3.60444L37.8136 3.61273L37.6732 3.60449L37.7611 3.67248C37.64 3.65559 37.552 3.58761 37.5502 3.53769C37.435 3.57258 37.272 3.53812 37.2185 3.5979L37.2613 3.61444C36.9387 3.58139 36.7245 3.78556 36.4719 3.66717C36.4526 3.67582 36.4553 3.69272 36.4944 3.6924L36.2945 3.69217L36.3417 3.74255L36.013 3.65873L36.0142 3.69267C35.7961 3.70006 35.4552 3.67762 35.1754 3.66111L35.2172 3.67769C34.9121 3.61906 34.9213 3.7037 34.7014 3.66218C34.7072 3.6696 34.7154 3.67495 34.7246 3.67738L34.5184 3.67238L34.5628 3.70585C34.4148 3.6309 34.1353 3.7943 34.2279 3.73419C34.1433 3.70107 33.9986 3.66 33.9744 3.61784C33.7546 3.61029 33.9203 3.66065 33.7842 3.68725C33.6257 3.69262 33.5977 3.6296 33.3823 3.65688L33.3835 3.69083C33.2802 3.68333 33.2205 3.65836 33.0801 3.65113L33.1219 3.6677C32.8936 3.59347 32.8358 3.76235 32.6573 3.61247C32.5614 3.63871 32.3791 3.6139 32.3878 3.68257C32.1027 3.63426 31.8813 3.61077 31.5978 3.57939C31.5524 3.68988 31.5368 3.57147 31.3649 3.63326L31.3782 3.57384C30.9779 3.56141 30.5173 3.70296 30.0763 3.67591L30.064 3.7353L29.9761 3.66931C29.5009 3.6934 28.8862 3.70623 28.507 3.70708C28.3442 3.64776 28.171 3.61968 27.9971 3.6244L28.018 3.63269C27.6596 3.58829 27.2975 3.57846 26.937 3.60333C26.9606 3.62852 26.9231 3.64579 26.9649 3.66236C26.876 3.59641 26.7453 3.65781 26.665 3.65953L26.7592 3.61535C26.7078 3.59554 26.6521 3.58886 26.5973 3.59597C26.5425 3.60307 26.4906 3.62372 26.4464 3.65594L26.2771 3.5917C26.266 3.59808 26.2488 3.60665 26.2471 3.61671L26.2316 3.58625L26.1427 3.66422C26.1009 3.64765 25.8776 3.62723 25.8079 3.55162C25.7913 3.57717 25.6344 3.59748 25.7565 3.61234L25.139 3.63325L25.2348 3.60502C25.2461 3.54567 25.0614 3.51094 24.9665 3.53614C25.0919 3.58387 24.9778 3.62072 24.9237 3.66454C24.8401 3.63238 24.996 3.61211 24.9516 3.57963C24.8286 3.53754 24.6967 3.52619 24.5681 3.54664L24.6308 3.57051C24.4878 3.54836 24.4276 3.65235 24.2822 3.64729C24.1558 3.59959 24.0626 3.64473 24.0877 3.54192C23.9046 3.52114 24.0181 3.61125 23.9587 3.62126C23.8974 3.60067 23.8323 3.59319 23.7678 3.59935C23.7033 3.6055 23.6409 3.62514 23.5849 3.65691C23.4837 3.50741 23.0933 3.71155 23.0558 3.58587L22.9069 3.65689C22.8996 3.62179 22.88 3.59024 22.8513 3.56767C22.8227 3.5451 22.7868 3.53294 22.7499 3.53326C22.6358 3.57011 22.6637 3.62914 22.6289 3.66331L22.5502 3.53803C21.8914 3.67229 21.0198 3.58987 20.2986 3.70826C19.9315 3.66389 19.5617 3.64303 19.1918 3.6458L19.2336 3.66137L18.8599 3.70002L19.1307 3.63887C19.0573 3.61939 18.9819 3.60786 18.9059 3.6045C18.4227 3.68806 17.9305 3.71212 17.4411 3.67611C17.1105 3.53638 17.2253 3.80736 16.9105 3.70608C16.9378 3.71915 16.9478 3.7398 16.972 3.75298C16.6812 3.72224 16.3928 3.67359 16.1084 3.60731C16.1506 3.74981 15.8878 3.60678 15.9204 3.68164L15.8905 3.62368C15.8156 3.66021 15.6389 3.67619 15.6651 3.71728L15.5142 3.64743L15.503 3.70778C15.3054 3.71447 14.8836 3.67479 14.7777 3.79832C14.1524 3.73892 13.5227 3.7375 12.8971 3.79405C12.7657 3.75246 12.6272 3.7361 12.4893 3.74589L12.3416 3.82087C12.1987 3.80271 12.0442 3.71699 11.913 3.76542C11.9137 3.7695 11.9156 3.7733 11.9184 3.77639C11.9213 3.77948 11.925 3.78172 11.9291 3.78286C11.7884 3.79812 11.6461 3.78733 11.5096 3.75109C11.3511 3.75646 11.2022 3.80049 11.2478 3.86491C11.2292 3.7476 10.9118 3.89029 10.9118 3.89029L9.60658 3.95749C8.81153 3.99842 7.72931 4.04807 6.58557 4.07782C4.63806 4.21294 2.6813 4.14924 0.74751 3.88775C0.677536 3.83315 0.490954 3.80249 0.558423 3.73023C0.414612 3.71411 0.35557 3.82007 0.32364 3.76317C0.516681 3.71565 0.256462 3.61452 0.443171 3.53423L0.320232 3.5254C0.293029 3.48534 0.488612 3.56567 0.455041 3.49184L0.493915 3.59848C0.56347 3.59147 0.628517 3.56178 0.678421 3.51426C0.773586 3.55302 0.838561 3.69775 1.05746 3.62437L0.996525 3.62043C1.17766 3.6143 1.1041 3.54582 1.1405 3.5266L1.10036 3.52796L1.25067 3.46689C1.13676 3.50873 0.940153 3.42843 1.04325 3.42994C1.2572 3.39071 0.988645 3.45878 1.14757 3.46539C1.25049 3.4619 1.21771 3.41004 1.21134 3.37627L1.39145 3.37017C1.38344 3.31946 1.27206 3.37421 1.34337 3.32282L1.57269 3.36703C1.60922 3.23685 1.82185 3.41856 1.92038 3.29328C1.7557 3.26987 1.93324 3.24986 1.90501 3.20983L2.30536 3.19627C2.34279 3.17701 2.20104 3.16082 2.25992 3.16483C2.33376 3.12634 2.38553 3.19056 2.42563 3.1882C2.45834 3.15211 2.72409 3.17809 2.70968 3.09262C2.97926 3.02451 2.82879 3.19553 3.07911 3.13608C3.11017 3.08305 2.87288 3.13207 2.98826 3.07419L3.25132 3.08227C3.23583 3.05747 3.21288 3.03786 3.18556 3.0261C3.15824 3.01434 3.12785 3.01098 3.0985 3.01648C3.66047 2.84206 4.24096 2.72986 4.82892 2.68199C4.91829 2.61699 4.76158 2.64329 4.69531 2.60555C5.16851 2.66948 5.35115 2.4474 5.75171 2.43982L5.76075 2.49049C6.37285 2.37653 6.9938 2.31303 7.61694 2.30068L7.54307 2.33816C7.65062 2.3745 7.76264 2.39692 7.87624 2.40484C7.89074 2.37836 7.79723 2.29957 7.98117 2.31433C7.94374 2.33359 7.86724 2.35517 7.89074 2.37836C8.74116 2.25139 9.59844 2.17228 10.4583 2.14146C11.6642 2.15058 12.9681 2.01746 14.1525 2.02932C13.9721 2.02843 14.0539 2.1526 14.1867 2.12111C14.5539 1.90277 14.8326 2.14421 15.2125 1.99241C15.861 1.94771 16.5121 1.9534 17.1596 2.00941L17.1708 1.94906C17.2656 1.92086 17.2929 1.96192 17.393 1.96652L17.3924 1.94955C17.6295 1.92353 17.918 1.98073 18.0539 1.95013L18.0636 2.01778C18.2049 2.02198 18.1358 1.96435 18.2814 2.0014L18.2802 1.96746L18.4504 2.02866C18.4317 1.91035 18.8487 2.01517 18.9631 1.95932C19.2302 1.99821 19.5005 2.01215 19.7704 2.00094C19.8208 1.94026 20.1607 1.93774 20.377 1.90543C20.7988 1.91712 21.4022 1.93267 21.9391 1.90649L21.9306 1.98274L22.0709 1.98699C22.0702 1.97001 22.0874 1.96143 22.0696 1.95304C22.1778 1.86542 22.3931 1.97907 22.5055 1.92428C22.4348 1.99365 22.4029 1.93576 22.3277 1.9373C22.2126 1.97419 22.3234 2.0474 22.4787 2.00915L22.4781 1.99218L22.5826 2.03262C22.5938 1.97327 22.6897 1.94503 22.702 1.88564C23.1177 1.93604 23.536 1.96491 23.955 1.97214C23.9052 1.90586 24.2977 1.98852 24.2008 1.87286C24.4867 1.91614 24.1547 1.96637 24.2854 2.04791C24.3646 2.04522 24.4493 2.07734 24.4632 2.03489C24.4251 2.00719 24.5276 1.96474 24.4603 1.95402L24.6512 1.96255C24.6694 1.95394 24.6276 1.93736 24.6057 1.93011C24.9955 1.99587 25.2954 1.85277 25.6451 1.92188C25.6714 1.96398 25.5064 1.93258 25.5327 1.97567C25.8842 2.06372 25.8391 1.90132 26.1711 1.96304L26.1031 1.90537C26.1508 1.93556 26.2047 1.95515 26.2611 1.96275C26.3175 1.97034 26.3749 1.96575 26.4293 1.9493C26.4598 1.8813 26.2809 1.89335 26.1972 1.85721C26.3166 1.85316 26.6192 1.87389 26.5277 1.93497C26.6707 1.95811 26.7231 1.89736 26.7997 1.87878C26.8003 1.89575 26.6664 1.92427 26.7499 1.95543C26.9934 1.92467 27.2388 1.91135 27.4842 1.91556C27.4836 1.89859 27.4982 1.87311 27.4824 1.86465C27.6699 1.97724 27.6489 1.82502 27.9124 1.84508Z" fill="#202020"/>
<path d="M40.6288 2.42505L40.4952 2.43557C40.4945 2.41561 40.4937 2.39165 40.429 2.36885L40.6288 2.42505Z" fill="#202020"/>
<path d="M36.0583 2.35275C36.0416 2.34568 36.0257 2.33683 36.011 2.32637C36.0431 2.33128 36.0539 2.34491 36.0583 2.35275Z" fill="#202020"/>
<path d="M34.9438 2.19942C35.0477 2.22189 34.9547 2.24403 34.9009 2.26584C34.8992 2.24791 34.9056 2.2257 34.9438 2.19942Z" fill="#202020"/>
<path d="M39.1223 2.82282C39.0993 2.8136 39.0855 2.80108 39.0899 2.78194C39.1204 2.7989 39.1271 2.81166 39.1223 2.82282Z" fill="#202020"/>
<path d="M48.9787 2.96265L48.939 2.97499C48.9507 2.96732 48.9645 2.96304 48.9787 2.96265Z" fill="#202020"/>
<path d="M48.4268 3.0593C48.3893 3.05779 48.3521 3.052 48.3159 3.04207C48.3538 3.03895 48.3918 3.04487 48.4268 3.0593Z" fill="#202020"/>
<path d="M41.4726 2.602C41.4357 2.59983 41.4 2.58903 41.3684 2.57055C41.4057 2.56979 41.4423 2.58083 41.4726 2.602Z" fill="#202020"/>
<path d="M48.2034 3.02912L48.0655 3.03379C48.0647 3.02783 48.0645 3.02182 48.0649 3.01582L48.2034 3.02912Z" fill="#202020"/>
<path d="M49.1517 2.96178C49.094 2.96079 49.0362 2.96275 48.9788 2.96764C49.0341 2.94703 49.095 2.94496 49.1517 2.96178Z" fill="#202020"/>
<path d="M42.7348 2.96936L42.7204 2.96985C42.6146 2.92345 42.6813 2.94219 42.7348 2.96936Z" fill="#202020"/>
<path d="M47.6086 2.90123L47.5901 2.90186L47.551 2.8752L47.6086 2.90123Z" fill="#202020"/>
<path d="M49.7437 2.94873C49.72 2.94739 49.6969 2.94101 49.676 2.93003L49.7542 2.92738C49.7489 2.93353 49.7453 2.94087 49.7437 2.94873Z" fill="#202020"/>
<path d="M44.8026 2.8882C44.841 2.92388 44.8541 2.94643 44.8548 2.9644C44.8093 2.96094 44.7809 2.94491 44.8026 2.8882Z" fill="#202020"/>
</g>
<defs>
<clipPath id="clip0_5_3163">
<rect width="53.625" height="4.79688" fill="white" transform="translate(0.28125 0.6875)"/>
</clipPath>
</defs>
</svg>
