<svg width="19" height="12" viewBox="0 0 19 12" fill="none" xmlns="http://www.w3.org/2000/svg">
<path d="M14.3867 7.91833C14.3867 7.89233 14.3987 7.90533 14.3867 7.91833V7.91833Z" fill="#202020"/>
<path d="M6.14964 7.3932C6.14754 7.38922 6.14512 7.38542 6.14241 7.38184C6.10937 7.39423 6.07942 7.40456 6.05566 7.41075L6.14964 7.3932Z" fill="#202020"/>
<path d="M5.32279 6.43209V6.41309C5.30579 6.42609 5.28779 6.43209 5.32279 6.43209Z" fill="#202020"/>
<path d="M9.07227 7.03516C9.08672 7.0651 9.10118 7.07337 9.11461 7.07337C9.09813 7.06352 9.08374 7.05054 9.07227 7.03516Z" fill="#202020"/>
<path d="M15.7793 6.18555V6.19555C15.7878 6.19198 15.7964 6.18898 15.8053 6.18655L15.7793 6.18555Z" fill="#202020"/>
<path d="M15.8126 6.21821C15.7713 6.24816 15.7754 6.17897 15.7775 6.15625C15.7503 6.16483 15.7267 6.18211 15.7102 6.20544C15.6938 6.22876 15.6855 6.25684 15.6866 6.28534C15.7341 6.31425 15.7682 6.21821 15.8126 6.21821Z" fill="#202020"/>
<path d="M18.9053 3.20898L18.9125 3.24203C18.9118 3.23072 18.9093 3.21958 18.9053 3.20898Z" fill="#202020"/>
<path d="M10.7568 8.34977L10.7678 8.34277C10.7678 8.34277 10.7678 8.34377 10.7568 8.34977Z" fill="#202020"/>
<path d="M18.3125 3.63965L18.3765 3.70471C18.3588 3.67975 18.3372 3.65778 18.3125 3.63965Z" fill="#202020"/>
<path d="M6.0566 7.40234L6.02148 7.40854C6.03339 7.40783 6.04517 7.40575 6.0566 7.40234Z" fill="#202020"/>
<path d="M4.46289 5.58197C4.48159 5.5682 4.49857 5.55225 4.51349 5.53446V5.5293L4.46289 5.58197Z" fill="#202020"/>
<path d="M2.26344 2.13776C2.26769 2.12561 2.27114 2.11319 2.27376 2.10059L2.21387 2.14603C2.22225 2.14819 2.23099 2.14857 2.23953 2.14715C2.24807 2.14572 2.25621 2.14253 2.26344 2.13776Z" fill="#202020"/>
<path d="M3.58648 4.23926C3.57695 4.24068 3.56761 4.2431 3.55859 4.24649C3.57338 4.36103 3.61133 4.47136 3.67013 4.57076L3.76514 4.52222L3.58648 4.23926Z" fill="#202020"/>
<path d="M4.48731 2.40785L4.41709 2.58341C3.96063 2.20647 3.97509 1.96895 3.51863 1.66327L3.57646 1.67153C3.57646 1.6106 3.12517 1.69115 3.15615 1.0013H3.17474C3.15409 0.982715 3.11691 0.993042 3.13343 0.941406L3.10245 1.0674C3.01384 1.03552 2.92697 0.998976 2.84221 0.95793L0.930664 1.7304C0.964743 1.74072 0.999856 1.75312 1.03393 1.76757C1.03811 1.77229 1.04123 1.77785 1.04309 1.78387C1.04494 1.78989 1.0455 1.79623 1.04472 1.80248C1.04394 1.80874 1.04184 1.81475 1.03855 1.82013C1.03527 1.8255 1.03088 1.83012 1.02567 1.83367C1.02567 1.83367 1.14237 1.87394 1.26629 1.91732C1.39022 1.96069 1.51621 1.99374 1.51621 1.99374L1.55545 2.0464L1.60089 2.10114C1.79814 2.1094 1.83635 1.95862 2.1947 2.12902C2.10589 1.99787 2.44255 2.1094 2.4219 2.0464C2.44705 2.07042 2.47398 2.09251 2.50245 2.1125C2.79512 2.15394 3.09256 2.14801 3.38335 2.09494C3.2204 2.05334 3.06061 2.00019 2.9052 1.9359C2.72111 1.86966 2.55219 1.76711 2.40847 1.63435C2.66355 1.71904 2.48696 1.63435 2.46011 1.59305L2.42396 1.6137C2.28351 1.55277 2.34031 1.49081 2.28351 1.45466C2.27892 1.45995 2.27509 1.46586 2.27215 1.47222L2.28868 1.46705C2.28661 1.47307 2.2829 1.47838 2.27798 1.48239C2.27305 1.48641 2.2671 1.48896 2.26079 1.48977C2.25047 1.5032 2.23394 1.51146 2.19676 1.49597H2.21122C2.13916 1.48282 2.06952 1.45879 2.00468 1.42471L2.06045 1.37721C1.96441 1.40406 1.84358 1.32041 1.76613 1.21817L1.6928 1.12213V1.24812C1.6928 1.37927 1.66182 1.52902 1.6928 1.57239C1.64323 1.68186 1.87559 1.74072 1.89934 1.85432C2.00262 2.01852 1.83325 1.96792 1.82189 2.06809C1.85184 2.18169 1.91277 2.01955 1.95408 2.05776L1.93033 2.20957C1.85804 2.14451 1.83532 2.19615 1.81053 2.21783C1.88592 2.3211 1.85907 2.52765 2.07181 2.51112C2.10589 2.67223 2.03463 2.69185 2.07904 2.75278C2.09453 2.72386 2.08936 2.67739 2.12654 2.66603C2.09556 2.74245 2.17095 2.68668 2.16785 2.65983C2.32482 2.72076 2.23084 3.18445 2.44978 3.14624L2.4126 3.15657C2.58093 3.13488 2.69866 3.06259 2.83498 3.0977L2.80503 3.1545L2.92482 3.19478C2.91243 3.24744 2.8546 3.23918 2.83601 3.24435C2.99505 3.31973 3.04255 3.47464 3.1262 3.59443L3.41949 3.35794C3.41949 3.48084 3.38954 3.70906 3.54135 3.69048L3.4608 3.78755C3.38851 4.05502 3.70555 3.89082 3.70142 3.98893L3.64772 4.12834L3.55581 4.03127C3.57167 4.12305 3.56709 4.2172 3.54238 4.307C3.54298 4.30343 3.54454 4.3001 3.54691 4.29737C3.54928 4.29463 3.55236 4.29261 3.55581 4.29151L3.58679 4.29255C3.63252 4.28845 3.67858 4.29478 3.72151 4.31106C3.76444 4.32734 3.80312 4.35314 3.83464 4.38652C3.91003 4.48979 4.09385 4.5311 4.09178 4.73041L4.28077 4.72318L4.30659 4.86467L4.18679 4.90081C4.08352 4.78618 3.82225 4.591 3.67044 4.44539L3.61261 4.45881C3.69936 4.54453 3.85013 4.62611 3.89557 4.68704C3.89277 4.70745 3.88554 4.727 3.8744 4.74433C3.86326 4.76165 3.84846 4.77634 3.83106 4.78735C3.81365 4.79837 3.79404 4.80545 3.77361 4.8081C3.75319 4.81075 3.73242 4.80891 3.71278 4.8027L3.88421 4.82026C4.09704 4.98091 4.26404 5.19456 4.36855 5.43988L4.4016 5.39548C4.49764 5.44402 4.59265 5.49152 4.51313 5.53799C4.59265 5.60741 4.65698 5.6925 4.70212 5.78792C4.74725 5.88334 4.77221 5.98705 4.77544 6.09256L4.9417 6.07397C4.97372 6.11424 4.82398 6.23714 5.03878 6.19273L5.18646 6.25469C5.23189 6.30943 5.34549 6.31459 5.32897 6.39824V6.41476H5.34033C5.40436 6.55005 5.46322 6.37345 5.52725 6.53146C5.47458 6.60581 5.75445 6.52113 5.79266 6.59549L5.6646 6.72457C5.68009 6.87741 5.90109 6.82784 6.09008 6.99927C6.1097 7.10254 5.9868 7.19859 5.78026 7.19446C5.90089 7.18216 6.02255 7.20399 6.13138 7.25745C6.07355 7.29773 6.0467 7.29256 5.95582 7.2936C5.96615 7.40926 6.08285 7.32458 6.15307 7.39067C6.29799 7.3551 6.44601 7.33365 6.59507 7.32664L6.61056 7.2874C6.7634 7.33077 6.88423 7.39067 6.90592 7.49394L6.83259 7.5146L6.96581 7.58689L6.88216 7.62303L7.04843 7.73456V7.70978C7.0918 7.73456 7.23225 7.81305 7.24774 7.88534L7.19611 7.90083C7.21779 8.10737 7.56478 8.15694 7.78785 8.32527L7.65979 8.33766C7.63191 8.43267 7.83432 8.29945 7.86633 8.38723L7.74757 8.43474C7.98406 8.43474 7.81057 8.52665 7.80024 8.59171L7.93759 8.51426L8.00059 8.6072C8.05429 8.71047 7.86324 8.73526 7.76306 8.75178L7.95825 8.76727L7.83019 8.83027C8.04912 8.81478 7.85704 8.88397 8.03673 8.93354C7.99129 8.95936 7.93346 8.95109 7.94585 8.98517L8.30214 9.03991L8.11935 8.9955L8.33828 8.92941C8.59336 8.95109 8.44878 9.04507 8.57787 9.08121L8.46737 9.06469C8.4945 9.07354 8.5196 9.08768 8.54122 9.10629C8.56285 9.12491 8.58057 9.14762 8.59336 9.17313C8.60779 9.22031 8.62682 9.26597 8.65016 9.30944C8.65016 9.264 8.65016 9.19894 8.75343 9.25161C8.82159 9.29292 8.71832 9.30841 8.75343 9.36418C8.82836 9.3424 8.90833 9.34552 8.98133 9.37309C9.05433 9.40065 9.11641 9.45115 9.15825 9.51702C9.14288 9.52746 9.12512 9.53385 9.10662 9.53561C9.15619 9.54903 9.19956 9.5418 9.23054 9.6048L9.09422 9.66263H9.30077C9.34621 9.74628 9.52383 9.75557 9.44948 9.8165L9.38751 9.80411L9.94001 10.273L9.89974 10.3762C10.0195 10.273 10.2095 10.686 10.2498 10.4795C10.3407 10.6788 10.698 10.7315 10.6009 10.9246C11.014 11.2551 11.1948 11.1559 11.6595 11.6155L11.676 11.6062C11.8474 11.7322 12.1428 11.1931 12.3535 10.937C12.7087 10.2823 12.8905 9.86917 13.2251 9.32907C13.3462 9.28388 13.4531 9.20724 13.5349 9.10703C13.6031 9.0286 13.6588 8.94013 13.7001 8.84472C13.7128 8.77856 13.7405 8.71619 13.7812 8.66247C13.8218 8.60874 13.8743 8.5651 13.9345 8.53491L13.8519 8.45436C14.1473 8.38001 14.0677 8.13525 14.4003 8.01236C14.3871 7.98364 14.3831 7.95152 14.3889 7.92045C14.3478 7.9325 14.3041 7.9325 14.2629 7.92045C14.36 7.88534 14.3776 7.77071 14.5252 7.81718V7.8337C14.6729 7.88121 14.582 7.66847 14.7628 7.64885L14.5717 7.63542L14.675 7.55074L14.6853 7.58379C14.677 7.08809 15.3597 7.05091 15.3803 6.59032C15.5104 6.69359 15.3566 6.48705 15.5538 6.54075C15.8863 6.51803 15.6695 6.35486 15.6798 6.25985C15.6689 6.25683 15.6587 6.25156 15.6499 6.24436L15.8068 6.11011C15.971 6.26089 15.7036 5.95521 15.8347 6.08843C16.3593 5.79823 16.634 5.29634 17.1442 4.93282H17.0647C17.1845 4.83782 17.2433 4.69014 17.4251 4.6478C17.6068 4.60546 17.4592 4.43299 17.4809 4.39582C17.4695 4.27912 17.7597 4.27396 17.7091 4.30597C17.7772 4.2089 17.6616 4.05502 17.8929 3.96621C18.1366 3.99719 18.0788 3.56965 18.3111 3.64917L18.2936 3.64091C18.6334 3.54486 18.5404 3.30424 18.8843 3.19271C18.8921 3.19865 18.899 3.2056 18.905 3.21337L18.6602 2.64021L17.8175 2.46465L16.8581 2.53694L16.4265 2.96758L16.0134 3.39925L15.5177 3.68841L15.0251 3.98273C15.0251 3.98273 14.5955 4.39582 14.1886 4.8089C13.7817 5.22198 13.3934 5.65056 13.3934 5.65056L13.4512 5.81992C12.8244 6.06157 12.7851 6.58516 12.243 6.88464L12.3906 6.93628C12.3111 7.03955 12.2213 7.00857 12.1727 7.02716C11.9744 7.26261 11.7927 7.50427 11.6161 7.75005L11.3559 8.11357L11.2278 8.29429C11.1979 8.3356 11.204 8.33044 11.2009 8.33766L11.1937 8.35625C11.1565 8.45126 11.0615 8.58965 10.9872 8.5473L10.981 8.54111C10.9459 8.40582 10.9221 8.45126 10.9201 8.33457C10.8849 8.50806 10.7827 8.42545 10.7538 8.38207L10.7682 8.37484H10.7228C10.7337 8.36781 10.7451 8.3616 10.7569 8.35625C10.734 8.36353 10.7095 8.36353 10.6867 8.35625H10.6774L10.6433 8.32011C10.6195 8.29842 10.5968 8.27467 10.5741 8.25092C10.4863 8.15591 10.4182 8.04437 10.3469 7.95763H10.3738C9.21902 7.13153 8.141 6.20317 7.15273 5.18377C6.91314 4.66122 6.04257 4.23678 5.7245 3.6533C5.7751 3.51698 4.63705 2.48634 4.48731 2.40785Z" fill="#202020"/>
<path d="M1.02717 2.87258L1.01685 2.86328C0.971407 2.93041 1.00445 2.92008 1.02717 2.87258Z" fill="#202020"/>
<path d="M3.14146 3.58977V3.57324L3.07227 3.68684L3.14146 3.58977Z" fill="#202020"/>
<path d="M1.74609 3.58984C1.7843 3.74372 1.80289 3.74165 1.82045 3.70654C1.80982 3.66025 1.78356 3.61904 1.74609 3.58984Z" fill="#202020"/>
<path d="M2.47943 3.58869C2.5734 3.62793 2.54346 3.567 2.50525 3.49781C2.4483 3.48426 2.39211 3.46771 2.33691 3.44824C2.38752 3.48852 2.42883 3.55048 2.47943 3.58869Z" fill="#202020"/>
<path d="M2.46209 2.36257L2.50547 2.30887C2.46003 2.30577 2.45383 2.32952 2.46209 2.36257Z" fill="#202020"/>
</svg>
