<svg width="22" height="18" viewBox="0 0 22 18" fill="none" xmlns="http://www.w3.org/2000/svg">
<path d="M20.1068 7.59021C20.1815 7.61193 20.2608 7.61193 20.3356 7.59021L21.0938 7.39043L19.9859 6.51339C19.6073 6.21372 18.6872 6.29064 18.5663 6.1438C18.4451 6.21023 18.311 6.24987 18.1731 6.26004C18.0353 6.27021 17.8968 6.25067 17.7671 6.20273C17.8321 6.26966 17.8311 6.58132 17.5833 6.50241C17.7681 5.88608 17.1587 6.16178 17.0199 5.67831C17.1587 6.00595 16.2876 5.64735 16.5134 6.11683C16.3136 6.03492 16.5354 5.87909 16.3965 5.70728C15.858 5.87809 15.3106 5.38763 14.6762 5.37964C14.6632 5.42959 14.6852 5.50251 14.6762 5.57942C14.6702 5.57942 14.6642 5.57942 14.6572 5.57043C14.4699 4.87139 14.1494 4.21508 13.7132 3.63756C13.268 2.96889 12.925 2.23767 12.6952 1.46795C12.7621 1.7856 12.6832 1.6927 12.6023 1.57683C12.6443 1.6937 12.5504 1.77661 12.5324 1.90047C12.4605 1.6341 12.3792 1.37005 12.2886 1.10834C12.1887 1.3311 11.951 0.616882 11.905 0.867606L11.9989 0.967496C11.9439 1.20711 11.9439 1.45608 11.9989 1.69569L11.7731 1.2372L9.26166 6.3256L7.57036 6.57133C7.58182 6.5701 7.59246 6.56478 7.60033 6.55635L7.57735 6.45646C7.47046 6.47843 7.40852 6.55635 7.47745 6.58931L7.17775 6.63326C7.33459 6.44846 7.12281 5.87909 6.90403 5.56943C6.91002 5.65134 6.92101 5.72626 6.7302 5.8691C6.81711 5.96 7.22171 6.04091 7.07286 6.2347C6.81412 6.37055 6.83909 6.20174 6.69224 6.12182C6.82211 6.31261 6.49244 6.47044 6.49244 6.73615L4.8321 6.97788C4.836 6.96303 4.83602 6.94743 4.83217 6.93257C4.82833 6.9177 4.82073 6.90407 4.81013 6.89298L4.66227 6.95091C4.49145 6.76811 4.91003 6.62727 4.70223 6.56034C4.88805 6.38653 5.08585 6.12782 5.39254 6.20074L5.49244 6.48143C5.47925 6.45708 5.46061 6.43612 5.43798 6.42016C5.41535 6.4042 5.38933 6.39368 5.36197 6.38943C5.33461 6.38518 5.30663 6.3873 5.28022 6.39563C5.25382 6.40397 5.22969 6.41829 5.20973 6.43748C5.30963 6.29164 5.70922 6.76312 5.78914 6.36655L5.55638 6.19674C5.74219 6.02094 5.95598 5.67831 6.22471 5.73225C6.06587 5.46455 6.16976 5.77321 5.93899 5.46655C6.15777 5.85811 5.27866 5.54546 5.59634 5.94302C5.35258 5.58342 5.24769 5.82615 4.95498 5.53247C4.97596 5.62637 5.06787 5.70129 4.84509 5.6863C4.83732 5.71796 4.82557 5.7485 4.81013 5.7772H4.79414L4.80813 5.78719C4.80014 5.80317 4.80014 5.80517 4.80813 5.78719C4.86292 5.8171 4.90825 5.86174 4.939 5.91605C4.86307 6.14979 4.51842 6.19275 4.41952 6.3236C4.28465 6.29663 4.45748 6.20673 4.37256 6.11483L4.22371 6.30962C4.17576 6.10185 3.83211 6.00995 4.11582 5.84013L3.8431 5.8701C3.72437 5.80381 3.58663 5.77986 3.45249 5.80218L0.665283 6.4175L2.69525 8.13161C2.73367 8.16539 2.7801 8.18878 2.83011 8.19954C2.89105 8.3234 3.22971 8.25847 3.02991 8.29943L3.42951 8.5052L3.39455 8.54616C3.68026 8.86181 4.26767 8.90376 4.34659 9.51809C4.52099 9.57438 4.66993 9.6904 4.76717 9.84573L4.66727 10.0105C4.84309 10.0925 4.933 10.528 5.12381 10.4451C4.92401 10.9395 5.68625 11.1443 5.85608 11.433L6.0329 11.2692C6.14427 11.3812 6.27445 11.4728 6.41751 11.5399C6.26267 11.9035 6.71022 12.3879 6.36656 12.6726C6.39206 12.7109 6.40173 12.7576 6.39353 12.8028C6.38533 12.8481 6.35991 12.8884 6.32261 12.9153C6.32313 12.9059 6.32068 12.8964 6.31562 12.8884C6.31091 12.9017 6.30757 12.9154 6.30563 12.9293C6.26267 12.9673 6.21272 13.0052 6.16976 13.0492C6.21949 13.0238 6.26444 12.99 6.30263 12.9493C6.29369 13.0581 6.30383 13.1676 6.3326 13.273L6.09883 13.2829V13.3109C5.99893 13.4108 6.18974 13.4198 6.37056 13.3888C6.39666 13.4531 6.43385 13.5123 6.48045 13.5636C6.10083 13.5936 6.55138 13.8863 6.14179 13.9452C6.31761 14.0551 6.18475 14.5446 6.57336 14.6764C6.52041 14.6764 6.48944 14.7014 6.49743 14.6385C6.4295 14.7593 6.36257 14.8792 6.45548 15.013H6.15578L6.49344 15.3587C6.29364 15.4985 6.17576 15.5514 5.98495 15.3447C6.25468 15.8102 6.05588 15.6973 6.3336 16.1008L6.15078 16.0519C6.1368 16.1768 6.35058 16.4175 6.18475 16.4654C6.13431 16.4942 6.09149 16.5346 6.05987 16.5833L5.50843 17.3824L7.05987 17.3055C7.50842 17.2835 8.24068 16.6702 8.93699 16.6333C8.55537 16.2077 9.34857 16.6972 9.17475 16.3036C9.27465 16.4035 9.39653 16.4195 9.34558 16.5743C9.61131 16.2896 9.93099 16.5014 9.98793 16.0629C10.0878 16.1628 10.0079 16.2687 10.0768 16.3206C10.0898 16.2816 10.1268 16.1648 10.1977 16.2207C10.2687 16.2766 10.1977 16.3436 10.1757 16.4205C10.4984 16.2257 10.3436 15.8511 10.1917 15.5025C10.4445 15.5724 10.5164 15.5025 10.5224 15.2218C10.6393 15.3007 10.7971 15.3637 10.6103 15.5125C10.7352 15.4675 11.4095 15.2997 11.2756 15.025C11.3476 15.074 11.4485 14.9591 11.4625 14.9122C11.6059 14.8563 11.7462 14.7929 11.883 14.7224C12.1657 15.072 12.1118 14.6814 12.4185 15.1629L12.4994 14.9471C12.7711 14.5366 12.7791 15.4206 13.1368 15.3976L13.0998 15.2308C13.3256 15.1609 13.1997 16.0389 13.3236 16.1708C13.3366 16.2257 13.2407 16.2047 13.1807 16.2087C13.4355 16.6692 13.3695 15.971 13.6922 16.0629C13.6712 16.2337 13.4325 16.3895 13.6143 16.5184C13.6513 16.6842 14.4245 16.3526 14.5474 16.7671C14.5474 16.6263 14.5474 16.4854 14.7242 16.4744C14.951 16.5444 15.0648 17.1827 15.4335 16.9349C15.4434 16.9701 15.4405 17.0076 15.4255 17.0408C15.6303 17.0338 16.0169 17.1617 16.2107 17.0238C16.1378 17.2795 16.2397 17.3854 16.3965 17.4364L18.1158 17.9908L17.6043 16.5593C17.4924 16.2457 17.0628 15.8901 17.5424 15.8102L17.4115 15.2758H17.4874C17.4897 15.1545 17.4518 15.0358 17.3795 14.9384C17.3072 14.8409 17.2046 14.7702 17.0878 14.7373C17.1228 14.6484 17.1997 14.6964 17.2387 14.6964C17.2966 14.167 17.2576 14.121 16.8281 13.7584L17.0528 13.6745C16.898 13.5826 17.2916 12.8814 16.936 12.4329C16.9772 12.4309 17.0177 12.444 17.0498 12.4698C16.7142 12.0044 17.3316 11.1892 16.7791 11.0035C16.905 10.9096 17.0249 10.8037 17.1238 10.9136C17.7891 10.2343 18.6223 9.76482 19.2756 9.15748L18.9599 8.98068L19.1957 8.7809C19.3106 8.7809 19.4644 8.89877 19.2956 9.04361C19.5164 9.10354 19.4464 8.66602 19.3955 8.60709C19.8041 8.40731 19.5573 9.01564 19.6582 8.92874L19.7691 8.7839H19.7112C19.7172 8.58412 19.6213 8.46325 19.8231 8.28444C19.9929 8.21652 20.0349 8.37834 20.0918 8.34138C20.1088 8.35936 20.1328 8.35237 20.1717 8.27745L20.4714 8.02573L20.1717 7.93783C20.2097 7.71607 20.4534 7.6871 20.1068 7.59021ZM6.86307 12.0103L7.0299 11.9624L6.90503 11.6348C7.06387 11.7426 7.29363 11.9264 7.5274 12.1262L7.44348 12.6177C7.19869 12.4714 6.99812 12.2615 6.86307 12.0103ZM6.7342 10.3122C6.74505 10.2759 6.76267 10.242 6.78614 10.2123L7.02391 10.4451L6.77615 10.7088L7.05687 10.478L7.29064 10.7048C7.1594 10.8474 7.01302 10.9754 6.85408 11.0864L6.81112 10.9525L6.78215 11.0064C6.7334 10.7775 6.71726 10.5427 6.7342 10.3092V10.3122ZM14.6722 5.5964C14.6671 5.6204 14.6574 5.64316 14.6435 5.66338C14.6296 5.68361 14.6119 5.7009 14.5913 5.71427L14.4125 5.40761L14.6722 5.5964ZM7.14279 6.63226L6.79314 6.68321C6.81234 6.65659 6.83664 6.63405 6.86463 6.6169C6.89262 6.59976 6.92374 6.58834 6.95618 6.58332C6.98862 6.57831 7.02173 6.57978 7.05359 6.58767C7.08546 6.59556 7.11544 6.6097 7.14179 6.62927L7.14279 6.63226ZM6.72121 6.68021V6.69419H6.69723L6.72121 6.68021ZM3.64429 6.02094L3.6383 6.03292C3.47447 5.964 3.53241 5.99197 3.6433 6.01894L3.64429 6.02094ZM4.03191 8.35237C3.72022 8.18655 4.10783 8.06369 4.02591 8.06369C3.66328 7.62317 3.25069 8.06369 3.0399 7.75802L1.96997 6.19674L3.51742 6.28764C3.57122 6.2923 3.62405 6.30475 3.67426 6.3246C3.91902 6.54736 3.75618 6.82405 3.82911 7.00186C3.76808 7.03506 3.69842 7.049 3.62931 7.04181L3.45848 7.02383L3.57437 7.21163C3.65928 7.34847 3.64929 7.52228 3.75019 7.61119L3.66927 7.36346C3.79215 7.36346 3.96897 7.44637 3.98895 7.56923C3.99081 7.52953 3.98256 7.49 3.96497 7.45436L4.89504 8.36036C4.6145 8.45699 4.30914 8.45346 4.03091 8.35037L4.03191 8.35237ZM5.79214 9.52808C5.84497 9.47852 5.88359 9.41576 5.90403 9.34628L6.10383 9.53806C5.99948 9.55919 5.89159 9.55508 5.78914 9.52608L5.79214 9.52808ZM6.95697 15.4586L6.91801 15.6883L6.54039 15.3886C6.67585 15.4271 6.8153 15.4499 6.95597 15.4566L6.95697 15.4586ZM10.1847 15.3027C10.1218 15.2797 10.1068 15.1699 10.1018 15.029C10.0909 15.0618 10.0819 15.0951 10.0748 15.1289C10.0455 15.122 10.0182 15.1084 9.99483 15.0894C9.97147 15.0704 9.95272 15.0463 9.93998 15.019L10.0988 14.9351V15.035L10.1388 14.9161L10.2107 14.8782C10.284 14.9203 10.3597 14.958 10.4375 14.9911L10.1847 15.3027ZM17.3895 15.5574C17.3456 15.5918 17.3089 15.6346 17.2816 15.6833L17.2676 15.6453L17.3895 15.5574ZM16.3905 11.6787L16.3735 11.6477L16.4934 11.2362C16.1018 11.5259 16.2856 10.9195 16.0439 10.9565C16.1438 10.7877 16.5763 10.7997 16.4435 10.9935L16.3865 10.9885C16.4034 11.0252 16.4311 11.056 16.4659 11.0767C16.5007 11.0974 16.5409 11.107 16.5813 11.1043L16.3905 11.6787ZM19.9799 8.25348C20.0329 8.10864 20.0468 8.17956 20.0658 8.25348H19.9799Z" fill="#FBED81"/>
</svg>
